<svg data-cover="arms:covered" xmlns="http://www.w3.org/2000/svg" viewBox="0 0 512 512" data-copyright="© 2026 Sensory App House"><!--SAH-COPYRIGHT © 2026 Sensory App House. All rights reserved.--><metadata id="sah-copyright"><rdf:RDF xmlns:rdf="http://www.w3.org/1999/02/22-rdf-syntax-ns#" xmlns:dc="http://purl.org/dc/elements/1.1/" xmlns:cc="http://creativecommons.org/ns#"><cc:Work rdf:about=""><dc:rights><cc:Agent><dc:title>© 2026 Sensory App House. All rights reserved.</dc:title></cc:Agent></dc:rights><dc:creator><cc:Agent><dc:title>Sensory App House (PiCom)</dc:title></cc:Agent></dc:creator><dc:date>2026</dc:date></cc:Work></rdf:RDF></metadata><metadata id="sah">{"v":1,"fig":[["h1","ma"]]}</metadata><g data-fit="1" transform="translate(256 256) scale(1.2446) translate(-256.00 -233.00)">

<path d="M 198 248 Q 256 474 314 248" fill="none" stroke="#e0473c" stroke-width="4" stroke-linejoin="round"/>
<circle cx="198" cy="248" r="6" fill="#2b2b33" stroke="#1a1a1a" stroke-width="0"/>
<circle cx="314" cy="248" r="6" fill="#2b2b33" stroke="#1a1a1a" stroke-width="0"/>
<line x1="241" y1="277" x2="226" y2="405" stroke="#39425c" stroke-width="16.0" stroke-linecap="round"/>
<line x1="271" y1="277" x2="286" y2="405" stroke="#39425c" stroke-width="16.0" stroke-linecap="round"/>
<ellipse cx="226" cy="407" rx="13" ry="7" fill="#33373d"/>
<ellipse cx="286" cy="407" rx="13" ry="7" fill="#33373d"/>
<polygon points="224,171 288,171 286,279 226,279" fill="#2f3e72" stroke="#1a1a1a" stroke-width="5" stroke-linejoin="round"/>
<line x1="226" y1="173" x2="198" y2="248" stroke="#1a1a1a" stroke-width="13.0" stroke-linecap="round"/>
<line x1="286" y1="173" x2="314" y2="248" stroke="#1a1a1a" stroke-width="13.0" stroke-linecap="round"/>
<line x1="256" y1="171" x2="256" y2="140" stroke="#1a1a1a" stroke-width="13.0" stroke-linecap="round"/>
<g transform="translate(0,-26)"><path d="M 222.0 197 L 290.0 197 L 288.0 335 L 224.0 335 Z" fill="#2f3e72" stroke="#1a1a1a" stroke-width="4"/></g>
<line x1="226" y1="173" x2="198" y2="248" stroke="#ffffff" stroke-width="20" stroke-linecap="round"/>
<line x1="226" y1="173" x2="198" y2="248" stroke="#1a1a1a" stroke-width="13.0" stroke-linecap="round"/>
<line x1="286" y1="173" x2="314" y2="248" stroke="#ffffff" stroke-width="20" stroke-linecap="round"/>
<line x1="286" y1="173" x2="314" y2="248" stroke="#1a1a1a" stroke-width="13.0" stroke-linecap="round"/>
<circle id="h1" data-fig="ma" class="skin" cx="256" cy="104" r="40" fill="#7a4a26" stroke="#1a1a1a" stroke-width="6"/>
<path d="M 216.0 104.0 Q 216.0 54.0 256 54.0 Q 296.0 54.0 296.0 104.0 Q 256 77.0 216.0 104.0 Z" fill="#241c14" stroke="#1a1a1a" stroke-width="3" stroke-linejoin="round"/>
<g transform="translate(0,-26)"><path d="M 208.0 140 Q 206.0 68 256.0 68 Q 306.0 68 304.0 140 Q 256.0 98 208.0 140 Z" fill="#2f3e72" stroke="#1a1a1a" stroke-width="4" stroke-linejoin="round"/>
<path d="M 214.0 124 L 298.0 124 L 301.0 178 Q 256.0 192 211.0 178 Z" fill="#2f3e72" stroke="#1a1a1a" stroke-width="4" stroke-linejoin="round"/>
<path d="M 214.0 124 Q 256.0 118 298.0 124" fill="none" stroke="#2f3e72" stroke-width="4" stroke-linejoin="round"/>
<rect x="234" y="123" width="44" height="7" rx="0" fill="#7a4a26" stroke="#1a1a1a" stroke-width="0"/>
<line x1="241" y1="127" x2="250" y2="127" stroke="#1a1a1a" stroke-width="2" stroke-linecap="round"/>
<line x1="262" y1="127" x2="271" y2="127" stroke="#1a1a1a" stroke-width="2" stroke-linecap="round"/>
<path d="M 300.0 170 L 314.0 247 L 300.0 251 Z" fill="#222e57" stroke="#1a1a1a" stroke-width="3" stroke-linejoin="round"/>
<path d="M 220.0 140 Q 256.0 174 292.0 140" fill="none" stroke="#3d4f88" stroke-width="2" stroke-linejoin="round"/></g>
</g></svg>
