<svg data-cover="arms:covered" xmlns="http://www.w3.org/2000/svg" viewBox="0 0 512 512"><metadata id="sah">{"v":1,"fig":[["h1","ma"]]}</metadata>
<line x1="241" y1="303" x2="232" y2="455" stroke="#39425c" stroke-width="16.0" stroke-linecap="round"/>
<line x1="271" y1="303" x2="280" y2="455" stroke="#39425c" stroke-width="16.0" stroke-linecap="round"/>
<ellipse cx="232" cy="457" rx="13" ry="7" fill="#33373d"/>
<ellipse cx="280" cy="457" rx="13" ry="7" fill="#33373d"/>
<polygon points="224,197 288,197 286,305 226,305" fill="#2f3e72" stroke="#1a1a1a" stroke-width="5" stroke-linejoin="round"/>
<line x1="256" y1="197" x2="256" y2="166" stroke="#1a1a1a" stroke-width="13.0" stroke-linecap="round"/>
<path d="M 220.0 197 L 292.0 197 L 306.0 455 L 206.0 455 Z" fill="#2f3e72" stroke="#1a1a1a" stroke-width="4" stroke-linejoin="round"/>
<line x1="256" y1="209" x2="256" y2="449" stroke="#3d4f88" stroke-width="2" stroke-linecap="round"/>
<path d="M 230.0 223 L 216.0 445" fill="none" stroke="#222e57" stroke-width="2" stroke-linejoin="round"/>
<path d="M 282.0 223 L 296.0 445" fill="none" stroke="#222e57" stroke-width="2" stroke-linejoin="round"/>
<line x1="226" y1="199" x2="200" y2="300" stroke="#ffffff" stroke-width="20" stroke-linecap="round"/>
<line x1="226" y1="199" x2="200" y2="300" stroke="#1a1a1a" stroke-width="13.0" stroke-linecap="round"/>
<line x1="286" y1="199" x2="312" y2="300" stroke="#ffffff" stroke-width="20" stroke-linecap="round"/>
<line x1="286" y1="199" x2="312" y2="300" stroke="#1a1a1a" stroke-width="13.0" stroke-linecap="round"/>
<circle id="h1" data-fig="ma" class="skin" cx="256" cy="130" r="40" fill="#7a4a26" stroke="#1a1a1a" stroke-width="6"/>
<path d="M 216.0 130.0 Q 216.0 80.0 256 80.0 Q 296.0 80.0 296.0 130.0 Q 256 103.0 216.0 130.0 Z" fill="#241c14" stroke="#1a1a1a" stroke-width="3" stroke-linejoin="round"/>
<path d="M 208.0 140 Q 206.0 68 256.0 68 Q 306.0 68 304.0 140 Q 256.0 98 208.0 140 Z" fill="#2f3e72" stroke="#1a1a1a" stroke-width="4" stroke-linejoin="round"/>
<path d="M 214.0 124 L 298.0 124 L 301.0 178 Q 256.0 192 211.0 178 Z" fill="#2f3e72" stroke="#1a1a1a" stroke-width="4" stroke-linejoin="round"/>
<path d="M 214.0 124 Q 256.0 118 298.0 124" fill="none" stroke="#2f3e72" stroke-width="4" stroke-linejoin="round"/>
<rect x="234" y="123" width="44" height="7" rx="0" fill="#7a4a26" stroke="#1a1a1a" stroke-width="0"/>
<line x1="241" y1="127" x2="250" y2="127" stroke="#1a1a1a" stroke-width="2" stroke-linecap="round"/>
<line x1="262" y1="127" x2="271" y2="127" stroke="#1a1a1a" stroke-width="2" stroke-linecap="round"/>
<path d="M 300.0 170 L 314.0 247 L 300.0 251 Z" fill="#222e57" stroke="#1a1a1a" stroke-width="3" stroke-linejoin="round"/>
<path d="M 220.0 140 Q 256.0 174 292.0 140" fill="none" stroke="#3d4f88" stroke-width="2" stroke-linejoin="round"/>
<!-- arms reaching down to the keys -->
<line x1="226" y1="199" x2="200" y2="300" stroke="#1a1a1a" stroke-width="13.0" stroke-linecap="round"/>
<line x1="286" y1="199" x2="312" y2="300" stroke="#1a1a1a" stroke-width="13.0" stroke-linecap="round"/>
<!-- ===== VINTAGE TYPEWRITER ===== -->
<!-- sheet of paper sticking up behind the platen -->
<path d="M 226 196 L 286 196 L 286 256 L 226 256 Z" fill="#ffffff" stroke="#1a1a1a" stroke-width="4" stroke-linejoin="round"/>
<line x1="236" y1="212" x2="276" y2="212" stroke="#9aa3ad" stroke-width="3" stroke-linecap="round"/>
<line x1="236" y1="226" x2="276" y2="226" stroke="#9aa3ad" stroke-width="3" stroke-linecap="round"/>
<line x1="236" y1="240" x2="268" y2="240" stroke="#9aa3ad" stroke-width="3" stroke-linecap="round"/>
<!-- platen (paper roller) -->
<rect x="190" y="250" width="132" height="28" rx="14" fill="#5a5f66" stroke="#1a1a1a" stroke-width="5"/>
<circle cx="186" cy="264" r="13" fill="#3a3d42" stroke="#1a1a1a" stroke-width="4.5"/>
<circle cx="326" cy="264" r="13" fill="#3a3d42" stroke="#1a1a1a" stroke-width="4.5"/>
<!-- type-bars rising toward the platen -->
<line x1="246" y1="290" x2="251" y2="278" stroke="#1a1a1a" stroke-width="3" stroke-linecap="round"/>
<line x1="256" y1="292" x2="256" y2="278" stroke="#1a1a1a" stroke-width="3" stroke-linecap="round"/>
<line x1="266" y1="290" x2="261" y2="278" stroke="#1a1a1a" stroke-width="3" stroke-linecap="round"/>
<!-- stepped body: upper deck then sloped keyboard front -->
<path d="M 208 278 L 304 278 L 314 304 L 198 304 Z" fill="#2b6fb0" stroke="#1a1a1a" stroke-width="5" stroke-linejoin="round"/>
<path d="M 198 304 L 314 304 L 326 340 L 186 340 Z" fill="#4a90d9" stroke="#1a1a1a" stroke-width="5" stroke-linejoin="round"/>
<!-- two rows of round keys -->
<circle cx="210" cy="300" r="6.5" fill="#eceff2" stroke="#1a1a1a" stroke-width="3"/>
<circle cx="228" cy="300" r="6.5" fill="#eceff2" stroke="#1a1a1a" stroke-width="3"/>
<circle cx="246" cy="300" r="6.5" fill="#eceff2" stroke="#1a1a1a" stroke-width="3"/>
<circle cx="266" cy="300" r="6.5" fill="#eceff2" stroke="#1a1a1a" stroke-width="3"/>
<circle cx="284" cy="300" r="6.5" fill="#eceff2" stroke="#1a1a1a" stroke-width="3"/>
<circle cx="302" cy="300" r="6.5" fill="#eceff2" stroke="#1a1a1a" stroke-width="3"/>
<circle cx="202" cy="320" r="6.5" fill="#eceff2" stroke="#1a1a1a" stroke-width="3"/>
<circle cx="222" cy="320" r="6.5" fill="#eceff2" stroke="#1a1a1a" stroke-width="3"/>
<circle cx="242" cy="320" r="6.5" fill="#eceff2" stroke="#1a1a1a" stroke-width="3"/>
<circle cx="270" cy="320" r="6.5" fill="#eceff2" stroke="#1a1a1a" stroke-width="3"/>
<circle cx="290" cy="320" r="6.5" fill="#eceff2" stroke="#1a1a1a" stroke-width="3"/>
<circle cx="310" cy="320" r="6.5" fill="#eceff2" stroke="#1a1a1a" stroke-width="3"/>
<!-- space bar -->
<rect x="216" y="330" width="80" height="8" rx="4" fill="#eceff2" stroke="#1a1a1a" stroke-width="3"/>
<!-- hands resting on the keys -->
<circle cx="200" cy="300" r="12" fill="#7a4a26" stroke="#1a1a1a" stroke-width="4"/>
<circle cx="312" cy="300" r="12" fill="#7a4a26" stroke="#1a1a1a" stroke-width="4"/>
</svg>
