<svg data-cover="arms:covered" xmlns="http://www.w3.org/2000/svg" viewBox="0 0 512 512" data-copyright="© 2026 Sensory App House"><!--SAH-COPYRIGHT © 2026 Sensory App House. All rights reserved.--><metadata id="sah-copyright"><rdf:RDF xmlns:rdf="http://www.w3.org/1999/02/22-rdf-syntax-ns#" xmlns:dc="http://purl.org/dc/elements/1.1/" xmlns:cc="http://creativecommons.org/ns#"><cc:Work rdf:about=""><dc:rights><cc:Agent><dc:title>© 2026 Sensory App House. All rights reserved.</dc:title></cc:Agent></dc:rights><dc:creator><cc:Agent><dc:title>Sensory App House (PiCom)</dc:title></cc:Agent></dc:creator><dc:date>2026</dc:date></cc:Work></rdf:RDF></metadata><metadata id="sah">{"v":1,"fig":[["h1","ma"]]}</metadata><g data-fit="1" transform="translate(256 256) scale(0.9902) translate(-227.50 -268.50)">
<rect x="70" y="150" width="16" height="302" rx="2" fill="#9a6a3a" stroke="#1a1a1a" stroke-width="4"/>
<polygon points="70,158 0,176 0,446 70,452" fill="#b07a3a" stroke="#1a1a1a" stroke-width="4" stroke-linejoin="round"/>
<circle cx="10" cy="300" r="5" fill="#f0c419" stroke="#1a1a1a" stroke-width="0"/>
<line x1="241" y1="303" x2="286" y2="455" stroke="#39425c" stroke-width="16.0" stroke-linecap="round"/>
<line x1="271" y1="303" x2="230" y2="455" stroke="#39425c" stroke-width="16.0" stroke-linecap="round"/>
<ellipse cx="286" cy="457" rx="13" ry="7" fill="#33373d"/>
<ellipse cx="230" cy="457" rx="13" ry="7" fill="#33373d"/>
<polygon points="224,197 288,197 286,305 226,305" fill="#2f3e72" stroke="#1a1a1a" stroke-width="5" stroke-linejoin="round"/>
<line x1="226" y1="199" x2="212" y2="305" stroke="#1a1a1a" stroke-width="13.0" stroke-linecap="round"/>
<line x1="286" y1="199" x2="306" y2="287" stroke="#1a1a1a" stroke-width="13.0" stroke-linecap="round"/>
<line x1="256" y1="197" x2="256" y2="166" stroke="#1a1a1a" stroke-width="13.0" stroke-linecap="round"/>
<path d="M 220.0 197 L 292.0 197 L 306.0 455 L 206.0 455 Z" fill="#2f3e72" stroke="#1a1a1a" stroke-width="4" stroke-linejoin="round"/>
<line x1="256" y1="209" x2="256" y2="449" stroke="#3d4f88" stroke-width="2" stroke-linecap="round"/>
<path d="M 230.0 223 L 216.0 445" fill="none" stroke="#222e57" stroke-width="2" stroke-linejoin="round"/>
<path d="M 282.0 223 L 296.0 445" fill="none" stroke="#222e57" stroke-width="2" stroke-linejoin="round"/>
<line x1="226" y1="199" x2="212" y2="305" stroke="#ffffff" stroke-width="20" stroke-linecap="round"/>
<line x1="226" y1="199" x2="212" y2="305" stroke="#1a1a1a" stroke-width="13.0" stroke-linecap="round"/>
<line x1="286" y1="199" x2="306" y2="287" stroke="#ffffff" stroke-width="20" stroke-linecap="round"/>
<line x1="286" y1="199" x2="306" y2="287" stroke="#1a1a1a" stroke-width="13.0" stroke-linecap="round"/>
<circle id="h1" data-fig="ma" class="skin" cx="256" cy="130" r="40" fill="#7a4a26" stroke="#1a1a1a" stroke-width="6"/>
<path d="M 216.0 130.0 Q 216.0 80.0 256 80.0 Q 296.0 80.0 296.0 130.0 Q 256 103.0 216.0 130.0 Z" fill="#241c14" stroke="#1a1a1a" stroke-width="3" stroke-linejoin="round"/>
<path d="M 208.0 140 Q 206.0 68 256.0 68 Q 306.0 68 304.0 140 Q 256.0 98 208.0 140 Z" fill="#2f3e72" stroke="#1a1a1a" stroke-width="4" stroke-linejoin="round"/>
<path d="M 214.0 124 L 298.0 124 L 301.0 178 Q 256.0 192 211.0 178 Z" fill="#2f3e72" stroke="#1a1a1a" stroke-width="4" stroke-linejoin="round"/>
<path d="M 214.0 124 Q 256.0 118 298.0 124" fill="none" stroke="#2f3e72" stroke-width="4" stroke-linejoin="round"/>
<rect x="234" y="123" width="44" height="7" rx="0" fill="#7a4a26" stroke="#1a1a1a" stroke-width="0"/>
<line x1="241" y1="127" x2="250" y2="127" stroke="#1a1a1a" stroke-width="2" stroke-linecap="round"/>
<line x1="262" y1="127" x2="271" y2="127" stroke="#1a1a1a" stroke-width="2" stroke-linecap="round"/>
<path d="M 300.0 170 L 314.0 247 L 300.0 251 Z" fill="#222e57" stroke="#1a1a1a" stroke-width="3" stroke-linejoin="round"/>
<path d="M 220.0 140 Q 256.0 174 292.0 140" fill="none" stroke="#3d4f88" stroke-width="2" stroke-linejoin="round"/>
<circle cx="243" cy="127" r="4" fill="#1a1a1a" stroke="#1a1a1a" stroke-width="0"/>
<circle cx="269" cy="127" r="4" fill="#1a1a1a" stroke="#1a1a1a" stroke-width="0"/>
<path d="M 242.0 144.0 Q 256 160.0 270.0 144.0" fill="none" stroke="#1a1a1a" stroke-width="4" stroke-linejoin="round"/>
<line x1="316" y1="300" x2="386" y2="300" stroke="#1a1a1a" stroke-width="15.0" stroke-linecap="round"/><line x1="386" y1="300" x2="368" y2="286" stroke="#1a1a1a" stroke-width="15.0" stroke-linecap="round"/><line x1="386" y1="300" x2="368" y2="314" stroke="#1a1a1a" stroke-width="15.0" stroke-linecap="round"/><line x1="398" y1="180" x2="408" y2="194" stroke="#1a1a1a" stroke-width="15.1" stroke-linecap="round"/><line x1="408" y1="194" x2="432" y2="164" stroke="#1a1a1a" stroke-width="15.1" stroke-linecap="round"/><line x1="316" y1="300" x2="386" y2="300" stroke="#2f9e4a" stroke-width="9.5" stroke-linecap="round"/>
<line x1="386" y1="300" x2="368" y2="286" stroke="#2f9e4a" stroke-width="9.5" stroke-linecap="round"/>
<line x1="386" y1="300" x2="368" y2="314" stroke="#2f9e4a" stroke-width="9.5" stroke-linecap="round"/>
<line x1="150" y1="452" x2="362" y2="452" stroke="#9aa7b5" stroke-width="5" stroke-linecap="round"/>
<circle cx="412" cy="116" r="40" fill="#ffffff" stroke="#1a1a1a" stroke-width="5"/>
<line x1="412" y1="83" x2="412" y2="78" stroke="#1a1a1a" stroke-width="3" stroke-linecap="round"/>
<line x1="428" y1="87" x2="431" y2="83" stroke="#1a1a1a" stroke-width="3" stroke-linecap="round"/>
<line x1="441" y1="100" x2="445" y2="97" stroke="#1a1a1a" stroke-width="3" stroke-linecap="round"/>
<line x1="445" y1="116" x2="450" y2="116" stroke="#1a1a1a" stroke-width="3" stroke-linecap="round"/>
<line x1="441" y1="132" x2="445" y2="135" stroke="#1a1a1a" stroke-width="3" stroke-linecap="round"/>
<line x1="428" y1="145" x2="431" y2="149" stroke="#1a1a1a" stroke-width="3" stroke-linecap="round"/>
<line x1="412" y1="149" x2="412" y2="154" stroke="#1a1a1a" stroke-width="3" stroke-linecap="round"/>
<line x1="396" y1="145" x2="393" y2="149" stroke="#1a1a1a" stroke-width="3" stroke-linecap="round"/>
<line x1="383" y1="132" x2="379" y2="135" stroke="#1a1a1a" stroke-width="3" stroke-linecap="round"/>
<line x1="379" y1="116" x2="374" y2="116" stroke="#1a1a1a" stroke-width="3" stroke-linecap="round"/>
<line x1="383" y1="100" x2="379" y2="97" stroke="#1a1a1a" stroke-width="3" stroke-linecap="round"/>
<line x1="396" y1="87" x2="393" y2="83" stroke="#1a1a1a" stroke-width="3" stroke-linecap="round"/>
<line x1="412" y1="116" x2="422" y2="134" stroke="#1a1a1a" stroke-width="6" stroke-linecap="round"/>
<line x1="412" y1="116" x2="412" y2="85" stroke="#1a1a1a" stroke-width="4" stroke-linecap="round"/>
<circle cx="412" cy="116" r="4" fill="#1a1a1a" stroke="#1a1a1a" stroke-width="0"/>
<line x1="398" y1="180" x2="408" y2="194" stroke="#2f9e4a" stroke-width="9.6" stroke-linecap="round"/>
<line x1="408" y1="194" x2="432" y2="164" stroke="#2f9e4a" stroke-width="9.6" stroke-linecap="round"/>
</g></svg>
