<svg data-cover="arms:covered" xmlns="http://www.w3.org/2000/svg" viewBox="33.94 46.74 444.12 444.12"><metadata id="sah">{"v":1,"fig":[["h1","fa"],["h2","ma"],["h3","fa"]]}</metadata>
<line x1="70" y1="455" x2="442" y2="455" stroke="#9aa7b5" stroke-width="5" stroke-linecap="round"/>
<path d="M 110.0 197.0 L 170.0 197.0 L 170.0 287.0 L 196.0 389.0 L 84.0 389.0 L 110.0 287.0 Z" fill="#d6529e" stroke="#1a1a1a" stroke-width="5" stroke-linejoin="round"/>
<line x1="122" y1="389" x2="116" y2="455" stroke="#1a1a1a" stroke-width="13.0" stroke-linecap="round"/>
<line x1="158" y1="389" x2="164" y2="455" stroke="#1a1a1a" stroke-width="13.0" stroke-linecap="round"/>
<ellipse cx="116" cy="457" rx="13" ry="7" fill="#33373d"/>
<ellipse cx="164" cy="457" rx="13" ry="7" fill="#33373d"/>
<line x1="110" y1="199" x2="90" y2="305" stroke="#1a1a1a" stroke-width="13.0" stroke-linecap="round"/>
<line x1="170" y1="199" x2="190" y2="305" stroke="#1a1a1a" stroke-width="13.0" stroke-linecap="round"/>
<line x1="140" y1="197" x2="140" y2="166" stroke="#1a1a1a" stroke-width="13.0" stroke-linecap="round"/>
<path d="M 93.0 184.0 L 93.0 128.0 Q 93.0 76.0 140 76.0 Q 187.0 76.0 187.0 128.0 L 187.0 184.0 L 174.0 184.0 L 174.0 130.0 Q 174.0 96.0 140 96.0 Q 106.0 96.0 106.0 130.0 L 106.0 184.0 Z" fill="#5a3a1f" stroke="#1a1a1a" stroke-width="3" stroke-linejoin="round"/>
<path d="M 106.0 197 L 174.0 197 L 188.0 455 L 92.0 455 Z" fill="#2f3e72" stroke="#1a1a1a" stroke-width="4" stroke-linejoin="round"/>
<path d="M 118.0 217 L 110.0 447" fill="none" stroke="#222e57" stroke-width="2" stroke-linejoin="round"/>
<path d="M 162.0 217 L 170.0 447" fill="none" stroke="#222e57" stroke-width="2" stroke-linejoin="round"/>
<line x1="140" y1="211" x2="140" y2="449" stroke="#3d4f88" stroke-width="2" stroke-linecap="round"/>
<line x1="110" y1="199" x2="90" y2="305" stroke="#ffffff" stroke-width="20" stroke-linecap="round"/>
<line x1="110" y1="199" x2="90" y2="305" stroke="#1a1a1a" stroke-width="13.0" stroke-linecap="round"/>
<line x1="170" y1="199" x2="190" y2="305" stroke="#ffffff" stroke-width="20" stroke-linecap="round"/>
<line x1="170" y1="199" x2="190" y2="305" stroke="#1a1a1a" stroke-width="13.0" stroke-linecap="round"/>
<circle id="h1" data-fig="fa" class="skin" cx="140" cy="130" r="40" fill="#7a4a26" stroke="#1a1a1a" stroke-width="6"/>
<path d="M 102.0 96.0 Q 140 82.0 178.0 96.0 Q 140 92.0 102.0 96.0 Z" fill="#5a3a1f" stroke="#1a1a1a" stroke-width="3" stroke-linejoin="round"/>
<path d="M 89.0 210 L 89.0 122 Q 89.0 72 140.0 72 Q 191.0 72 191.0 122 L 191.0 210 Q 140.0 224 89.0 210 Z" fill="#2f3e72" stroke="#1a1a1a" stroke-width="4" stroke-linejoin="round"/>
<ellipse cx="140" cy="136" rx="26" ry="34" fill="#7a4a26" stroke="#1a1a1a" stroke-width="5"/>
<path d="M 91.0 124 Q 140.0 78 189.0 124" fill="none" stroke="#3d4f88" stroke-width="3" stroke-linejoin="round"/>
<line x1="241" y1="303" x2="232" y2="455" stroke="#39425c" stroke-width="16.0" stroke-linecap="round"/>
<line x1="271" y1="303" x2="280" y2="455" stroke="#39425c" stroke-width="16.0" stroke-linecap="round"/>
<ellipse cx="232" cy="457" rx="13" ry="7" fill="#33373d"/>
<ellipse cx="280" cy="457" rx="13" ry="7" fill="#33373d"/>
<polygon points="224,197 288,197 286,305 226,305" fill="#2f3e72" stroke="#1a1a1a" stroke-width="5" stroke-linejoin="round"/>
<line x1="226" y1="199" x2="194" y2="305" stroke="#1a1a1a" stroke-width="13.0" stroke-linecap="round"/>
<line x1="286" y1="199" x2="318" y2="305" stroke="#1a1a1a" stroke-width="13.0" stroke-linecap="round"/>
<line x1="256" y1="197" x2="256" y2="166" stroke="#1a1a1a" stroke-width="13.0" stroke-linecap="round"/>
<path d="M 220.0 197 L 292.0 197 L 306.0 455 L 206.0 455 Z" fill="#2f3e72" stroke="#1a1a1a" stroke-width="4" stroke-linejoin="round"/>
<line x1="256" y1="209" x2="256" y2="449" stroke="#3d4f88" stroke-width="2" stroke-linecap="round"/>
<path d="M 230.0 223 L 216.0 445" fill="none" stroke="#222e57" stroke-width="2" stroke-linejoin="round"/>
<path d="M 282.0 223 L 296.0 445" fill="none" stroke="#222e57" stroke-width="2" stroke-linejoin="round"/>
<line x1="226" y1="199" x2="194" y2="305" stroke="#ffffff" stroke-width="20" stroke-linecap="round"/>
<line x1="226" y1="199" x2="194" y2="305" stroke="#1a1a1a" stroke-width="13.0" stroke-linecap="round"/>
<line x1="286" y1="199" x2="318" y2="305" stroke="#ffffff" stroke-width="20" stroke-linecap="round"/>
<line x1="286" y1="199" x2="318" y2="305" stroke="#1a1a1a" stroke-width="13.0" stroke-linecap="round"/>
<circle id="h2" data-fig="ma" class="skin" cx="256" cy="130" r="40" fill="#7a4a26" stroke="#1a1a1a" stroke-width="6"/>
<path d="M 216.0 130.0 Q 216.0 80.0 256 80.0 Q 296.0 80.0 296.0 130.0 Q 256 103.0 216.0 130.0 Z" fill="#241c14" stroke="#1a1a1a" stroke-width="3" stroke-linejoin="round"/>
<path d="M 342.0 197.0 L 402.0 197.0 L 402.0 287.0 L 428.0 389.0 L 316.0 389.0 L 342.0 287.0 Z" fill="#f5a623" stroke="#1a1a1a" stroke-width="5" stroke-linejoin="round"/>
<line x1="354" y1="389" x2="348" y2="455" stroke="#1a1a1a" stroke-width="13.0" stroke-linecap="round"/>
<line x1="390" y1="389" x2="396" y2="455" stroke="#1a1a1a" stroke-width="13.0" stroke-linecap="round"/>
<ellipse cx="348" cy="457" rx="13" ry="7" fill="#33373d"/>
<ellipse cx="396" cy="457" rx="13" ry="7" fill="#33373d"/>
<line x1="342" y1="199" x2="322" y2="305" stroke="#1a1a1a" stroke-width="13.0" stroke-linecap="round"/>
<line x1="402" y1="199" x2="422" y2="305" stroke="#1a1a1a" stroke-width="13.0" stroke-linecap="round"/>
<line x1="372" y1="197" x2="372" y2="166" stroke="#1a1a1a" stroke-width="13.0" stroke-linecap="round"/>
<path d="M 325.0 184.0 L 325.0 128.0 Q 325.0 76.0 372 76.0 Q 419.0 76.0 419.0 128.0 L 419.0 184.0 L 406.0 184.0 L 406.0 130.0 Q 406.0 96.0 372 96.0 Q 338.0 96.0 338.0 130.0 L 338.0 184.0 Z" fill="#5a3a1f" stroke="#1a1a1a" stroke-width="3" stroke-linejoin="round"/>
<path d="M 338.0 197 L 406.0 197 L 420.0 455 L 324.0 455 Z" fill="#2f3e72" stroke="#1a1a1a" stroke-width="4" stroke-linejoin="round"/>
<path d="M 350.0 217 L 342.0 447" fill="none" stroke="#222e57" stroke-width="2" stroke-linejoin="round"/>
<path d="M 394.0 217 L 402.0 447" fill="none" stroke="#222e57" stroke-width="2" stroke-linejoin="round"/>
<line x1="372" y1="211" x2="372" y2="449" stroke="#3d4f88" stroke-width="2" stroke-linecap="round"/>
<line x1="342" y1="199" x2="322" y2="305" stroke="#ffffff" stroke-width="20" stroke-linecap="round"/>
<line x1="342" y1="199" x2="322" y2="305" stroke="#1a1a1a" stroke-width="13.0" stroke-linecap="round"/>
<line x1="402" y1="199" x2="422" y2="305" stroke="#ffffff" stroke-width="20" stroke-linecap="round"/>
<line x1="402" y1="199" x2="422" y2="305" stroke="#1a1a1a" stroke-width="13.0" stroke-linecap="round"/>
<circle id="h3" data-fig="fa" class="skin" cx="372" cy="130" r="40" fill="#7a4a26" stroke="#1a1a1a" stroke-width="6"/>
<path d="M 334.0 96.0 Q 372 82.0 410.0 96.0 Q 372 92.0 334.0 96.0 Z" fill="#5a3a1f" stroke="#1a1a1a" stroke-width="3" stroke-linejoin="round"/>
<path d="M 321.0 210 L 321.0 122 Q 321.0 72 372.0 72 Q 423.0 72 423.0 122 L 423.0 210 Q 372.0 224 321.0 210 Z" fill="#2f3e72" stroke="#1a1a1a" stroke-width="4" stroke-linejoin="round"/>
<ellipse cx="372" cy="136" rx="26" ry="34" fill="#7a4a26" stroke="#1a1a1a" stroke-width="5"/>
<path d="M 323.0 124 Q 372.0 78 421.0 124" fill="none" stroke="#3d4f88" stroke-width="3" stroke-linejoin="round"/>
<path d="M 256 106 C 223 78 223 111 256 129 C 289 111 289 78 256 106 Z" fill="#e0473c" stroke="#1a1a1a" stroke-width="3" stroke-linejoin="round"/>
</svg>
