<svg data-cover="arms:covered" xmlns="http://www.w3.org/2000/svg" viewBox="0 0 512 512" data-copyright="© 2026 Sensory App House"><!--SAH-COPYRIGHT © 2026 Sensory App House. All rights reserved.--><metadata id="sah-copyright"><rdf:RDF xmlns:rdf="http://www.w3.org/1999/02/22-rdf-syntax-ns#" xmlns:dc="http://purl.org/dc/elements/1.1/" xmlns:cc="http://creativecommons.org/ns#"><cc:Work rdf:about=""><dc:rights><cc:Agent><dc:title>© 2026 Sensory App House. All rights reserved.</dc:title></cc:Agent></dc:rights><dc:creator><cc:Agent><dc:title>Sensory App House (PiCom)</dc:title></cc:Agent></dc:creator><dc:date>2026</dc:date></cc:Work></rdf:RDF></metadata><metadata id="sah">{"v":1,"fig":[["h1","mc"],["h2","ma"]]}</metadata><g data-fit="1" transform="translate(256 256) scale(1.1612) translate(-258.50 -270.00)">
<line x1="337" y1="345" x2="331" y2="455" stroke="#1a1a1a" stroke-width="12.36" stroke-linecap="round"/>
<line x1="359" y1="345" x2="365" y2="455" stroke="#1a1a1a" stroke-width="12.36" stroke-linecap="round"/>
<ellipse cx="331" cy="457" rx="9" ry="5" fill="#33373d"/>
<ellipse cx="365" cy="457" rx="9" ry="5" fill="#33373d"/>
<polygon points="325,276 371,276 370,347 326,347" fill="#3fb24a" stroke="#1a1a1a" stroke-width="5" stroke-linejoin="round"/>
<polygon points="326,347 370,347 370,376 326,376" fill="#e0473c" stroke="#1a1a1a" stroke-width="5" stroke-linejoin="round"/>
<line x1="326" y1="278" x2="332" y2="353" stroke="#1a1a1a" stroke-width="9.36" stroke-linecap="round"/>
<line x1="370" y1="278" x2="365" y2="353" stroke="#1a1a1a" stroke-width="9.36" stroke-linecap="round"/>
<line x1="348" y1="276" x2="360" y2="267" stroke="#1a1a1a" stroke-width="9.36" stroke-linecap="round"/>
<circle id="h1" data-fig="mc" class="skin" cx="360" cy="242" r="29" fill="#7a4a26" stroke="#1a1a1a" stroke-width="6"/>
<path d="M 330.71999999999997 241.88 Q 330.71999999999997 203.07999999999998 359.52 203.07999999999998 Q 388.32 203.07999999999998 388.32 241.88 Q 359.52 226.07999999999998 330.71999999999997 241.88 Z" fill="#241c14" stroke="#1a1a1a" stroke-width="3" stroke-linejoin="round"/>
<circle cx="350" cy="239" r="3" fill="#1a1a1a" stroke="#1a1a1a" stroke-width="0"/>
<circle cx="369" cy="239" r="3" fill="#1a1a1a" stroke="#1a1a1a" stroke-width="0"/>
<path d="M 349.44 258.84000000000003 Q 359.52 244.84 369.59999999999997 258.84000000000003" fill="none" stroke="#1a1a1a" stroke-width="4" stroke-linejoin="round"/>
<path d="M 346.52 247.88 q 7 12 0 21 q -7 -9 0 -21 Z" fill="#7ec8f0" stroke="#1a1a1a" stroke-width="2" stroke-linejoin="round"/>
<path d="M 372.52 247.88 q 7 12 0 21 q -7 -9 0 -21 Z" fill="#7ec8f0" stroke="#1a1a1a" stroke-width="2" stroke-linejoin="round"/>
<line x1="161" y1="303" x2="152" y2="455" stroke="#39425c" stroke-width="16.0" stroke-linecap="round"/>
<line x1="191" y1="303" x2="200" y2="455" stroke="#39425c" stroke-width="16.0" stroke-linecap="round"/>
<ellipse cx="152" cy="457" rx="13" ry="7" fill="#33373d"/>
<ellipse cx="200" cy="457" rx="13" ry="7" fill="#33373d"/>
<polygon points="144,197 208,197 206,305 146,305" fill="#c0392b" stroke="#1a1a1a" stroke-width="5" stroke-linejoin="round"/>
<line x1="146" y1="199" x2="132" y2="305" stroke="#1a1a1a" stroke-width="13.0" stroke-linecap="round"/>
<line x1="206" y1="199" x2="226" y2="155" stroke="#1a1a1a" stroke-width="13.0" stroke-linecap="round"/>
<line x1="176" y1="197" x2="176" y2="166" stroke="#1a1a1a" stroke-width="13.0" stroke-linecap="round"/>
<path d="M 140.0 197 L 212.0 197 L 226.0 455 L 126.0 455 Z" fill="#2f3e72" stroke="#1a1a1a" stroke-width="4" stroke-linejoin="round"/>
<line x1="176" y1="209" x2="176" y2="449" stroke="#3d4f88" stroke-width="2" stroke-linecap="round"/>
<path d="M 150.0 223 L 136.0 445" fill="none" stroke="#222e57" stroke-width="2" stroke-linejoin="round"/>
<path d="M 202.0 223 L 216.0 445" fill="none" stroke="#222e57" stroke-width="2" stroke-linejoin="round"/>
<line x1="146" y1="199" x2="132" y2="305" stroke="#ffffff" stroke-width="20" stroke-linecap="round"/>
<line x1="146" y1="199" x2="132" y2="305" stroke="#1a1a1a" stroke-width="13.0" stroke-linecap="round"/>
<circle id="h2" data-fig="ma" class="skin" cx="176" cy="130" r="40" fill="#7a4a26" stroke="#1a1a1a" stroke-width="6"/>
<path d="M 136.0 130.0 Q 136.0 80.0 176 80.0 Q 216.0 80.0 216.0 130.0 Q 176 103.0 136.0 130.0 Z" fill="#241c14" stroke="#1a1a1a" stroke-width="3" stroke-linejoin="round"/>
<path d="M 128.0 140 Q 126.0 68 176.0 68 Q 226.0 68 224.0 140 Q 176.0 98 128.0 140 Z" fill="#2f3e72" stroke="#1a1a1a" stroke-width="4" stroke-linejoin="round"/>
<path d="M 134.0 124 L 218.0 124 L 221.0 178 Q 176.0 192 131.0 178 Z" fill="#2f3e72" stroke="#1a1a1a" stroke-width="4" stroke-linejoin="round"/>
<path d="M 134.0 124 Q 176.0 118 218.0 124" fill="none" stroke="#2f3e72" stroke-width="4" stroke-linejoin="round"/>
<rect x="154" y="123" width="44" height="7" rx="0" fill="#7a4a26" stroke="#1a1a1a" stroke-width="0"/>
<line x1="161" y1="127" x2="170" y2="127" stroke="#1a1a1a" stroke-width="2" stroke-linecap="round"/>
<line x1="182" y1="127" x2="191" y2="127" stroke="#1a1a1a" stroke-width="2" stroke-linecap="round"/>
<path d="M 220.0 170 L 234.0 247 L 220.0 251 Z" fill="#222e57" stroke="#1a1a1a" stroke-width="3" stroke-linejoin="round"/>
<path d="M 140.0 140 Q 176.0 174 212.0 140" fill="none" stroke="#3d4f88" stroke-width="2" stroke-linejoin="round"/>
<line x1="158" y1="116" x2="174" y2="124" stroke="#1a1a1a" stroke-width="5" stroke-linecap="round"/>
<line x1="194" y1="116" x2="178" y2="124" stroke="#1a1a1a" stroke-width="5" stroke-linecap="round"/>
<path d="M 162.0 152.0 Q 176 140.0 190.0 152.0" fill="none" stroke="#1a1a1a" stroke-width="4" stroke-linejoin="round"/>
<line x1="206" y1="199" x2="226" y2="155" stroke="#c0392b" stroke-width="13.0" stroke-linecap="round"/>
<circle cx="226" cy="151" r="14" fill="#7a4a26" stroke="#1a1a1a" stroke-width="4"/>
<line x1="210" y1="100" x2="228" y2="82" stroke="#d0211c" stroke-width="4" stroke-linecap="round"/>
<line x1="228" y1="100" x2="210" y2="82" stroke="#d0211c" stroke-width="4" stroke-linecap="round"/>
<line x1="219" y1="96" x2="219" y2="78" stroke="#d0211c" stroke-width="4" stroke-linecap="round"/>
<line x1="206" y1="87" x2="232" y2="87" stroke="#d0211c" stroke-width="4" stroke-linecap="round"/>
</g></svg>
