<svg data-cover="arms:covered" xmlns="http://www.w3.org/2000/svg" viewBox="41.97 52.21 438.30 438.30"><metadata id="sah">{"v":1,"fig":[["h1","ma"]]}</metadata>
<line x1="241" y1="303" x2="234" y2="455" stroke="#39425c" stroke-width="16.0" stroke-linecap="round"/>
<line x1="271" y1="303" x2="286" y2="409" stroke="#39425c" stroke-width="16.0" stroke-linecap="round"/>
<ellipse cx="234" cy="457" rx="13" ry="7" fill="#33373d"/>
<ellipse cx="286" cy="411" rx="13" ry="7" fill="#33373d"/>
<polygon points="232,197 296,197 286,305 226,305" fill="#2f3e72" stroke="#1a1a1a" stroke-width="5" stroke-linejoin="round"/>
<line x1="234" y1="199" x2="254" y2="155" stroke="#1a1a1a" stroke-width="13.0" stroke-linecap="round"/>
<line x1="294" y1="199" x2="300" y2="203" stroke="#1a1a1a" stroke-width="13.0" stroke-linecap="round"/>
<line x1="264" y1="197" x2="266" y2="166" stroke="#1a1a1a" stroke-width="13.0" stroke-linecap="round"/>
<path d="M 232.0 197 L 300.0 197 L 298.0 335 L 234.0 335 Z" fill="#2f3e72" stroke="#1a1a1a" stroke-width="4"/>
<line x1="294" y1="199" x2="300" y2="203" stroke="#ffffff" stroke-width="20" stroke-linecap="round"/>
<line x1="294" y1="199" x2="300" y2="203" stroke="#1a1a1a" stroke-width="13.0" stroke-linecap="round"/>
<circle id="h1" data-fig="ma" class="skin" cx="266" cy="130" r="40" fill="#7a4a26" stroke="#1a1a1a" stroke-width="6"/>
<path d="M 226.0 130.0 Q 226.0 80.0 266.0 80.0 Q 306.0 80.0 306.0 130.0 Q 266.0 103.0 226.0 130.0 Z" fill="#241c14" stroke="#1a1a1a" stroke-width="3" stroke-linejoin="round"/>
<path d="M 218.0 140 Q 216.0 68 266.0 68 Q 316.0 68 314.0 140 Q 266.0 98 218.0 140 Z" fill="#2f3e72" stroke="#1a1a1a" stroke-width="4" stroke-linejoin="round"/>
<path d="M 224.0 124 L 308.0 124 L 311.0 178 Q 266.0 192 221.0 178 Z" fill="#2f3e72" stroke="#1a1a1a" stroke-width="4" stroke-linejoin="round"/>
<path d="M 224.0 124 Q 266.0 118 308.0 124" fill="none" stroke="#2f3e72" stroke-width="4" stroke-linejoin="round"/>
<rect x="244" y="123" width="44" height="7" rx="0" fill="#7a4a26" stroke="#1a1a1a" stroke-width="0"/>
<line x1="251" y1="127" x2="260" y2="127" stroke="#1a1a1a" stroke-width="2" stroke-linecap="round"/>
<line x1="272" y1="127" x2="281" y2="127" stroke="#1a1a1a" stroke-width="2" stroke-linecap="round"/>
<path d="M 310.0 170 L 324.0 247 L 310.0 251 Z" fill="#222e57" stroke="#1a1a1a" stroke-width="3" stroke-linejoin="round"/>
<path d="M 230.0 140 Q 266.0 174 302.0 140" fill="none" stroke="#3d4f88" stroke-width="2" stroke-linejoin="round"/>
<line x1="150" y1="116" x2="150" y2="452" stroke="#e0473c" stroke-width="9" stroke-linecap="round"/>
<line x1="372" y1="116" x2="372" y2="452" stroke="#e0473c" stroke-width="9" stroke-linecap="round"/>
<line x1="144" y1="116" x2="378" y2="116" stroke="#e0473c" stroke-width="9" stroke-linecap="round"/>
<line x1="222" y1="116" x2="222" y2="452" stroke="#2b6fb0" stroke-width="6" stroke-linecap="round"/>
<line x1="300" y1="116" x2="300" y2="452" stroke="#2b6fb0" stroke-width="6" stroke-linecap="round"/>
<line x1="150" y1="164" x2="372" y2="164" stroke="#f0a020" stroke-width="7" stroke-linecap="round"/>
<line x1="150" y1="212" x2="372" y2="212" stroke="#f0a020" stroke-width="7" stroke-linecap="round"/>
<line x1="150" y1="260" x2="372" y2="260" stroke="#f0a020" stroke-width="7" stroke-linecap="round"/>
<line x1="150" y1="308" x2="372" y2="308" stroke="#f0a020" stroke-width="7" stroke-linecap="round"/>
<line x1="150" y1="356" x2="372" y2="356" stroke="#f0a020" stroke-width="7" stroke-linecap="round"/>
<line x1="150" y1="404" x2="372" y2="404" stroke="#f0a020" stroke-width="7" stroke-linecap="round"/>
<line x1="150" y1="452" x2="150" y2="452" stroke="#e0473c" stroke-width="9" stroke-linecap="round"/>
</svg>
