<svg data-cover="arms:covered" xmlns="http://www.w3.org/2000/svg" viewBox="0 0 512 512"><metadata id="sah">{"v":1,"fig":[["h1","ma"]]}</metadata>
<line x1="214" y1="108" x2="236" y2="332" stroke="#6b4a2b" stroke-width="4" stroke-linecap="round"/>
<line x1="298" y1="108" x2="276" y2="332" stroke="#6b4a2b" stroke-width="4" stroke-linecap="round"/>
<rect x="226" y="332" width="60" height="10" rx="2" fill="#9a6a3a" stroke="#1a1a1a" stroke-width="3"/>
<path d="M 176 366 Q 256 398 336 366" fill="none" stroke="#8a8f98" stroke-width="3" stroke-linejoin="round"/>
<line x1="241" y1="343" x2="216" y2="345" stroke="#39425c" stroke-width="16.0" stroke-linecap="round"/>
<line x1="216" y1="345" x2="216" y2="415" stroke="#39425c" stroke-width="16.0" stroke-linecap="round"/>
<line x1="271" y1="343" x2="296" y2="345" stroke="#39425c" stroke-width="16.0" stroke-linecap="round"/>
<line x1="296" y1="345" x2="296" y2="415" stroke="#39425c" stroke-width="16.0" stroke-linecap="round"/>
<ellipse cx="216" cy="417" rx="13" ry="7" fill="#33373d"/>
<ellipse cx="296" cy="417" rx="13" ry="7" fill="#33373d"/>
<polygon points="224,197 288,197 286,345 226,345" fill="#2f3e72" stroke="#1a1a1a" stroke-width="5" stroke-linejoin="round"/>
<line x1="226" y1="199" x2="194" y2="305" stroke="#1a1a1a" stroke-width="13.0" stroke-linecap="round"/>
<line x1="286" y1="199" x2="318" y2="305" stroke="#1a1a1a" stroke-width="13.0" stroke-linecap="round"/>
<line x1="256" y1="197" x2="256" y2="166" stroke="#1a1a1a" stroke-width="13.0" stroke-linecap="round"/>
<path d="M 222.0 197 L 290.0 197 L 288.0 335 L 224.0 335 Z" fill="#2f3e72" stroke="#1a1a1a" stroke-width="4"/>
<line x1="226" y1="199" x2="194" y2="305" stroke="#ffffff" stroke-width="20" stroke-linecap="round"/>
<line x1="226" y1="199" x2="194" y2="305" stroke="#1a1a1a" stroke-width="13.0" stroke-linecap="round"/>
<line x1="286" y1="199" x2="318" y2="305" stroke="#ffffff" stroke-width="20" stroke-linecap="round"/>
<line x1="286" y1="199" x2="318" y2="305" stroke="#1a1a1a" stroke-width="13.0" stroke-linecap="round"/>
<circle id="h1" data-fig="ma" class="skin" cx="256" cy="130" r="40" fill="#7a4a26" stroke="#1a1a1a" stroke-width="6"/>
<path d="M 216.0 130.0 Q 216.0 80.0 256 80.0 Q 296.0 80.0 296.0 130.0 Q 256 103.0 216.0 130.0 Z" fill="#241c14" stroke="#1a1a1a" stroke-width="3" stroke-linejoin="round"/>
<path d="M 208.0 140 Q 206.0 68 256.0 68 Q 306.0 68 304.0 140 Q 256.0 98 208.0 140 Z" fill="#2f3e72" stroke="#1a1a1a" stroke-width="4" stroke-linejoin="round"/>
<path d="M 214.0 124 L 298.0 124 L 301.0 178 Q 256.0 192 211.0 178 Z" fill="#2f3e72" stroke="#1a1a1a" stroke-width="4" stroke-linejoin="round"/>
<path d="M 214.0 124 Q 256.0 118 298.0 124" fill="none" stroke="#2f3e72" stroke-width="4" stroke-linejoin="round"/>
<rect x="234" y="123" width="44" height="7" rx="0" fill="#7a4a26" stroke="#1a1a1a" stroke-width="0"/>
<line x1="241" y1="127" x2="250" y2="127" stroke="#1a1a1a" stroke-width="2" stroke-linecap="round"/>
<line x1="262" y1="127" x2="271" y2="127" stroke="#1a1a1a" stroke-width="2" stroke-linecap="round"/>
<path d="M 300.0 170 L 314.0 247 L 300.0 251 Z" fill="#222e57" stroke="#1a1a1a" stroke-width="3" stroke-linejoin="round"/>
<path d="M 220.0 140 Q 256.0 174 292.0 140" fill="none" stroke="#3d4f88" stroke-width="2" stroke-linejoin="round"/>
</svg>
