<svg data-cover="arms:covered" xmlns="http://www.w3.org/2000/svg" viewBox="0 0 512 512"><metadata id="sah">{"v":1,"fig":[["h1","fa"]]}</metadata>
<line x1="70" y1="455" x2="442" y2="455" stroke="#9aa7b5" stroke-width="5" stroke-linecap="round"/>
<line x1="145" y1="303" x2="136" y2="455" stroke="#39425c" stroke-width="16.0" stroke-linecap="round"/>
<line x1="175" y1="303" x2="184" y2="455" stroke="#39425c" stroke-width="16.0" stroke-linecap="round"/>
<ellipse cx="136" cy="457" rx="13" ry="7" fill="#33373d"/>
<ellipse cx="184" cy="457" rx="13" ry="7" fill="#33373d"/>
<polygon points="128,197 192,197 190,305 130,305" fill="#2f3e72" stroke="#1a1a1a" stroke-width="5" stroke-linejoin="round"/>
<line x1="130" y1="199" x2="110" y2="305" stroke="#1a1a1a" stroke-width="13.0" stroke-linecap="round"/>
<line x1="190" y1="199" x2="210" y2="305" stroke="#1a1a1a" stroke-width="13.0" stroke-linecap="round"/>
<line x1="160" y1="197" x2="160" y2="166" stroke="#1a1a1a" stroke-width="13.0" stroke-linecap="round"/>
<path d="M 113.0 184.0 L 113.0 128.0 Q 113.0 76.0 160.0 76.0 Q 207.0 76.0 207.0 128.0 L 207.0 184.0 L 194.0 184.0 L 194.0 130.0 Q 194.0 96.0 160.0 96.0 Q 126.0 96.0 126.0 130.0 L 126.0 184.0 Z" fill="#5a3a1f" stroke="#1a1a1a" stroke-width="3"/>
<path d="M 126.0 197 L 194.0 197 L 208.0 455 L 112.0 455 Z" fill="#2f3e72" stroke="#1a1a1a" stroke-width="4" stroke-linejoin="round"/>
<path d="M 138.0 217 L 130.0 447" fill="none" stroke="#222e57" stroke-width="2" stroke-linejoin="round"/>
<path d="M 182.0 217 L 190.0 447" fill="none" stroke="#222e57" stroke-width="2" stroke-linejoin="round"/>
<line x1="160" y1="211" x2="160" y2="449" stroke="#3d4f88" stroke-width="2" stroke-linecap="round"/>
<line x1="130" y1="199" x2="110" y2="305" stroke="#ffffff" stroke-width="20" stroke-linecap="round"/>
<line x1="130" y1="199" x2="110" y2="305" stroke="#1a1a1a" stroke-width="13.0" stroke-linecap="round"/>
<line x1="190" y1="199" x2="210" y2="305" stroke="#ffffff" stroke-width="20" stroke-linecap="round"/>
<line x1="190" y1="199" x2="210" y2="305" stroke="#1a1a1a" stroke-width="13.0" stroke-linecap="round"/>
<circle id="h1" data-fig="fa" class="skin" cx="160" cy="130" r="40" fill="#7a4a26" stroke="#1a1a1a" stroke-width="6"/>
<path d="M 122.0 96.0 Q 160.0 82.0 198.0 96.0 Q 160.0 92.0 122.0 96.0 Z" fill="#5a3a1f" stroke="#1a1a1a" stroke-width="3"/>
<path d="M 109.0 210 L 109.0 122 Q 109.0 72 160.0 72 Q 211.0 72 211.0 122 L 211.0 210 Q 160.0 224 109.0 210 Z" fill="#2f3e72" stroke="#1a1a1a" stroke-width="4" stroke-linejoin="round"/>
<ellipse cx="160" cy="136" rx="26" ry="34" fill="#7a4a26" stroke="#1a1a1a" stroke-width="5"/>
<path d="M 111.0 124 Q 160.0 78 209.0 124" fill="none" stroke="#3d4f88" stroke-width="3" stroke-linejoin="round"/>
<circle cx="147" cy="127" r="4" fill="#1a1a1a" stroke="#1a1a1a" stroke-width="0"/>
<circle cx="173" cy="127" r="4" fill="#1a1a1a" stroke="#1a1a1a" stroke-width="0"/>
<path d="M 146.0 144.0 Q 160 160.0 174.0 144.0" fill="none" stroke="#1a1a1a" stroke-width="4" stroke-linejoin="round"/>
<rect x="286.0" y="179.0" width="132.0" height="176.0" rx="8" fill="#ffffff" stroke="#1a1a1a" stroke-width="6"/>
<rect x="330.0" y="167.0" width="44.0" height="20.0" rx="4" fill="#9aa7b3" stroke="#1a1a1a" stroke-width="5"/>
<rect x="307.3" y="196.0" width="9.4" height="26.0" rx="2.34" fill="#e0473c" stroke="#ffffff" stroke-width="3"/>
<rect x="299.0" y="204.3" width="26.0" height="9.4" rx="2.34" fill="#e0473c" stroke="#ffffff" stroke-width="3"/>
<line x1="334" y1="201" x2="402" y2="201" stroke="#cdd3da" stroke-width="4" stroke-linecap="round"/>
<line x1="334" y1="217" x2="388" y2="217" stroke="#cdd3da" stroke-width="4" stroke-linecap="round"/>
<rect x="302.0" y="235.0" width="22.0" height="22.0" rx="4" fill="none" stroke="#1a1a1a" stroke-width="4"/>
<line x1="302" y1="242" x2="310" y2="252" stroke="#1a1a1a" stroke-width="13.0" stroke-linecap="round"/><line x1="310" y1="252" x2="327" y2="228" stroke="#1a1a1a" stroke-width="13.0" stroke-linecap="round"/><line x1="302" y1="272" x2="310" y2="282" stroke="#1a1a1a" stroke-width="13.0" stroke-linecap="round"/><line x1="310" y1="282" x2="327" y2="258" stroke="#1a1a1a" stroke-width="13.0" stroke-linecap="round"/><line x1="302" y1="302" x2="310" y2="312" stroke="#1a1a1a" stroke-width="13.0" stroke-linecap="round"/><line x1="310" y1="312" x2="327" y2="288" stroke="#1a1a1a" stroke-width="13.0" stroke-linecap="round"/><line x1="302" y1="242" x2="310" y2="252" stroke="#2f9e4a" stroke-width="7.5" stroke-linecap="round"/>
<line x1="310" y1="252" x2="327" y2="228" stroke="#2f9e4a" stroke-width="7.5" stroke-linecap="round"/>
<line x1="334" y1="247" x2="400" y2="247" stroke="#cdd3da" stroke-width="4" stroke-linecap="round"/>
<rect x="302.0" y="265.0" width="22.0" height="22.0" rx="4" fill="none" stroke="#1a1a1a" stroke-width="4"/>
<line x1="302" y1="272" x2="310" y2="282" stroke="#2f9e4a" stroke-width="7.5" stroke-linecap="round"/>
<line x1="310" y1="282" x2="327" y2="258" stroke="#2f9e4a" stroke-width="7.5" stroke-linecap="round"/>
<line x1="334" y1="277" x2="400" y2="277" stroke="#cdd3da" stroke-width="4" stroke-linecap="round"/>
<rect x="302.0" y="295.0" width="22.0" height="22.0" rx="4" fill="none" stroke="#1a1a1a" stroke-width="4"/>
<line x1="302" y1="302" x2="310" y2="312" stroke="#2f9e4a" stroke-width="7.5" stroke-linecap="round"/>
<line x1="310" y1="312" x2="327" y2="288" stroke="#2f9e4a" stroke-width="7.5" stroke-linecap="round"/>
<line x1="334" y1="307" x2="400" y2="307" stroke="#cdd3da" stroke-width="4" stroke-linecap="round"/>
</svg>
