<svg data-cover="arms:covered" xmlns="http://www.w3.org/2000/svg" viewBox="0 0 512 512" data-copyright="© 2026 Sensory App House"><!--SAH-COPYRIGHT © 2026 Sensory App House. All rights reserved.--><metadata id="sah-copyright"><rdf:RDF xmlns:rdf="http://www.w3.org/1999/02/22-rdf-syntax-ns#" xmlns:dc="http://purl.org/dc/elements/1.1/" xmlns:cc="http://creativecommons.org/ns#"><cc:Work rdf:about=""><dc:rights><cc:Agent><dc:title>© 2026 Sensory App House. All rights reserved.</dc:title></cc:Agent></dc:rights><dc:creator><cc:Agent><dc:title>Sensory App House (PiCom)</dc:title></cc:Agent></dc:creator><dc:date>2026</dc:date></cc:Work></rdf:RDF></metadata><metadata id="sah">{"v":1,"fig":[["h1","ma"],["h2","fa"],["h3","fc"]]}</metadata><g data-fit="1" transform="translate(256 256) scale(0.9816) translate(-282.50 -269.00)">
<g transform="translate(25.3,65.1) scale(0.784)"><!-- parking sign: blue square with white P -->
  <rect x="40" y="70" width="200" height="200" rx="24" fill="#1565c0" stroke="#1a1a1a" stroke-width="7"/>
  <path d="M104 118 L104 230 M104 118 L160 118 Q196 118 196 156 Q196 192 160 192 L104 192"
        fill="none" stroke="#ffffff" stroke-width="26" stroke-linecap="round" stroke-linejoin="round"/>
  <!-- post -->
  <rect x="128" y="270" width="24" height="170" fill="#9aa3ad" stroke="#1a1a1a" stroke-width="6"/></g>
<line x1="297" y1="303" x2="288" y2="455" stroke="#39425c" stroke-width="16.0" stroke-linecap="round"/>
<line x1="327" y1="303" x2="336" y2="455" stroke="#39425c" stroke-width="16.0" stroke-linecap="round"/>
<ellipse cx="288" cy="457" rx="13" ry="7" fill="#33373d"/>
<ellipse cx="336" cy="457" rx="13" ry="7" fill="#33373d"/>
<polygon points="280,197 344,197 342,305 282,305" fill="#2f3e72" stroke="#1a1a1a" stroke-width="5" stroke-linejoin="round"/>
<line x1="282" y1="199" x2="262" y2="305" stroke="#1a1a1a" stroke-width="13.0" stroke-linecap="round"/>
<line x1="342" y1="199" x2="362" y2="305" stroke="#1a1a1a" stroke-width="13.0" stroke-linecap="round"/>
<line x1="312" y1="197" x2="312" y2="166" stroke="#1a1a1a" stroke-width="13.0" stroke-linecap="round"/>
<path d="M 276.0 197 L 348.0 197 L 362.0 455 L 262.0 455 Z" fill="#2f3e72" stroke="#1a1a1a" stroke-width="4" stroke-linejoin="round"/>
<line x1="312" y1="209" x2="312" y2="449" stroke="#3d4f88" stroke-width="2" stroke-linecap="round"/>
<path d="M 286.0 223 L 272.0 445" fill="none" stroke="#222e57" stroke-width="2" stroke-linejoin="round"/>
<path d="M 338.0 223 L 352.0 445" fill="none" stroke="#222e57" stroke-width="2" stroke-linejoin="round"/>
<line x1="282" y1="199" x2="262" y2="305" stroke="#ffffff" stroke-width="20" stroke-linecap="round"/>
<line x1="282" y1="199" x2="262" y2="305" stroke="#1a1a1a" stroke-width="13.0" stroke-linecap="round"/>
<line x1="342" y1="199" x2="362" y2="305" stroke="#ffffff" stroke-width="20" stroke-linecap="round"/>
<line x1="342" y1="199" x2="362" y2="305" stroke="#1a1a1a" stroke-width="13.0" stroke-linecap="round"/>
<line x1="367" y1="199" x2="347" y2="305" stroke="#ffffff" stroke-width="20" stroke-linecap="round"/>
<line x1="367" y1="199" x2="347" y2="305" stroke="#1a1a1a" stroke-width="13.0" stroke-linecap="round"/>
<circle id="h1" data-fig="ma" cx="312" cy="130" r="40" fill="#7a4a26" stroke="#1a1a1a" stroke-width="6" class="skin"/>
<path d="M 272.0 130.0 Q 272.0 80.0 312 80.0 Q 352.0 80.0 352.0 130.0 Q 312 103.0 272.0 130.0 Z" fill="#241c14" stroke="#1a1a1a" stroke-width="3" stroke-linejoin="round"/>
<path d="M 264.0 140 Q 262.0 68 312.0 68 Q 362.0 68 360.0 140 Q 312.0 98 264.0 140 Z" fill="#2f3e72" stroke="#1a1a1a" stroke-width="4" stroke-linejoin="round"/>
<path d="M 270.0 124 L 354.0 124 L 357.0 178 Q 312.0 192 267.0 178 Z" fill="#2f3e72" stroke="#1a1a1a" stroke-width="4" stroke-linejoin="round"/>
<path d="M 270.0 124 Q 312.0 118 354.0 124" fill="none" stroke="#2f3e72" stroke-width="4" stroke-linejoin="round"/>
<rect x="290" y="123" width="44" height="7" rx="0" fill="#7a4a26" stroke="#1a1a1a" stroke-width="0"/>
<line x1="297" y1="127" x2="306" y2="127" stroke="#1a1a1a" stroke-width="2" stroke-linecap="round"/>
<line x1="318" y1="127" x2="327" y2="127" stroke="#1a1a1a" stroke-width="2" stroke-linecap="round"/>
<path d="M 356.0 170 L 370.0 247 L 356.0 251 Z" fill="#222e57" stroke="#1a1a1a" stroke-width="3" stroke-linejoin="round"/>
<path d="M 276.0 140 Q 312.0 174 348.0 140" fill="none" stroke="#3d4f88" stroke-width="2" stroke-linejoin="round"/>
<path d="M 367.0 197.0 L 427.0 197.0 L 427.0 287.0 L 453.0 389.0 L 341.0 389.0 L 367.0 287.0 Z" fill="#d6529e" stroke="#1a1a1a" stroke-width="5" stroke-linejoin="round"/>
<line x1="379" y1="389" x2="373" y2="455" stroke="#1a1a1a" stroke-width="13.0" stroke-linecap="round"/>
<line x1="415" y1="389" x2="421" y2="455" stroke="#1a1a1a" stroke-width="13.0" stroke-linecap="round"/>
<ellipse cx="373" cy="457" rx="13" ry="7" fill="#33373d"/>
<ellipse cx="421" cy="457" rx="13" ry="7" fill="#33373d"/>
<line x1="367" y1="199" x2="347" y2="305" stroke="#1a1a1a" stroke-width="13.0" stroke-linecap="round"/>
<line x1="427" y1="199" x2="447" y2="305" stroke="#1a1a1a" stroke-width="13.0" stroke-linecap="round"/>
<line x1="397" y1="197" x2="397" y2="166" stroke="#1a1a1a" stroke-width="13.0" stroke-linecap="round"/>
<path d="M 350.0 184.0 L 350.0 128.0 Q 350.0 76.0 397 76.0 Q 444.0 76.0 444.0 128.0 L 444.0 184.0 L 431.0 184.0 L 431.0 130.0 Q 431.0 96.0 397 96.0 Q 363.0 96.0 363.0 130.0 L 363.0 184.0 Z" fill="#5a3a1f" stroke="#1a1a1a" stroke-width="3" stroke-linejoin="round"/>
<path d="M 363.0 197 L 431.0 197 L 445.0 455 L 349.0 455 Z" fill="#2f3e72" stroke="#1a1a1a" stroke-width="4" stroke-linejoin="round"/>
<path d="M 375.0 217 L 367.0 447" fill="none" stroke="#222e57" stroke-width="2" stroke-linejoin="round"/>
<path d="M 419.0 217 L 427.0 447" fill="none" stroke="#222e57" stroke-width="2" stroke-linejoin="round"/>
<line x1="397" y1="211" x2="397" y2="449" stroke="#3d4f88" stroke-width="2" stroke-linecap="round"/>
<line x1="342" y1="199" x2="362" y2="305" stroke="#ffffff" stroke-width="20" stroke-linecap="round"/>
<line x1="342" y1="199" x2="362" y2="305" stroke="#1a1a1a" stroke-width="13.0" stroke-linecap="round"/>
<line x1="367" y1="199" x2="347" y2="305" stroke="#ffffff" stroke-width="20" stroke-linecap="round"/>
<line x1="367" y1="199" x2="347" y2="305" stroke="#1a1a1a" stroke-width="13.0" stroke-linecap="round"/>
<line x1="427" y1="199" x2="447" y2="305" stroke="#ffffff" stroke-width="20" stroke-linecap="round"/>
<line x1="427" y1="199" x2="447" y2="305" stroke="#1a1a1a" stroke-width="13.0" stroke-linecap="round"/>
<circle id="h2" data-fig="fa" cx="397" cy="130" r="40" fill="#7a4a26" stroke="#1a1a1a" stroke-width="6" class="skin"/>
<path d="M 359.0 96.0 Q 397 82.0 435.0 96.0 Q 397 92.0 359.0 96.0 Z" fill="#5a3a1f" stroke="#1a1a1a" stroke-width="3" stroke-linejoin="round"/>
<path d="M 346.0 210 L 346.0 122 Q 346.0 72 397.0 72 Q 448.0 72 448.0 122 L 448.0 210 Q 397.0 224 346.0 210 Z" fill="#2f3e72" stroke="#1a1a1a" stroke-width="4" stroke-linejoin="round"/>
<ellipse cx="397" cy="136" rx="26" ry="34" fill="#7a4a26" stroke="#1a1a1a" stroke-width="5"/>
<path d="M 348.0 124 Q 397.0 78 446.0 124" fill="none" stroke="#3d4f88" stroke-width="3" stroke-linejoin="round"/>
<path d="M 460.4 269.24 L 503.6 269.24 L 503.6 334.04 L 522.32 407.48 L 441.68 407.48 L 460.4 334.04 Z" fill="#f5a623" stroke="#1a1a1a" stroke-width="5" stroke-linejoin="round"/>
<line x1="469" y1="407" x2="465" y2="455" stroke="#1a1a1a" stroke-width="9.36" stroke-linecap="round"/>
<line x1="495" y1="407" x2="499" y2="455" stroke="#1a1a1a" stroke-width="9.36" stroke-linecap="round"/>
<ellipse cx="465" cy="457" rx="9" ry="5" fill="#33373d"/>
<ellipse cx="499" cy="457" rx="9" ry="5" fill="#33373d"/>
<line x1="460" y1="271" x2="446" y2="347" stroke="#1a1a1a" stroke-width="9.36" stroke-linecap="round"/>
<line x1="504" y1="271" x2="518" y2="347" stroke="#1a1a1a" stroke-width="9.36" stroke-linecap="round"/>
<line x1="482" y1="269" x2="482" y2="246" stroke="#1a1a1a" stroke-width="9.36" stroke-linecap="round"/>
<path d="M 446.2 263.8 L 446.2 219.0 Q 446.2 178.2 482 178.2 Q 517.8 178.2 517.8 219.0 L 517.8 263.8 L 504.8 263.8 L 504.8 221.0 Q 504.8 198.2 482 198.2 Q 459.2 198.2 459.2 221.0 L 459.2 263.8 Z" fill="#5a3a1f" stroke="#1a1a1a" stroke-width="3" stroke-linejoin="round"/>
<circle id="h3" data-fig="fc" cx="482" cy="221" r="29" fill="#7a4a26" stroke="#1a1a1a" stroke-width="6" class="skin"/>
<path d="M 455.2 198.2 Q 482 184.2 508.8 198.2 Q 482 194.2 455.2 198.2 Z" fill="#241c14" stroke="#1a1a1a" stroke-width="3" stroke-linejoin="round"/>
</g></svg>
