<svg data-cover="arms:covered" xmlns="http://www.w3.org/2000/svg" viewBox="109.03 46.74 444.12 444.12"><metadata id="sah">{"v":1,"fig":[["h1","ma"]]}</metadata>
<path d="M 226.0 197.0 L 286.0 197.0 L 286.0 287.0 L 312.0 389.0 L 200.0 389.0 L 226.0 287.0 Z" fill="#2f3e72" stroke="#1a1a1a" stroke-width="5" stroke-linejoin="round"/>
<line x1="238" y1="389" x2="232" y2="455" stroke="#1a1a1a" stroke-width="13.0" stroke-linecap="round"/>
<line x1="274" y1="389" x2="280" y2="455" stroke="#1a1a1a" stroke-width="13.0" stroke-linecap="round"/>
<ellipse cx="232" cy="457" rx="13" ry="7" fill="#33373d"/>
<ellipse cx="280" cy="457" rx="13" ry="7" fill="#33373d"/>
<line x1="226" y1="199" x2="212" y2="305" stroke="#1a1a1a" stroke-width="13.0" stroke-linecap="round"/>
<line x1="286" y1="199" x2="286" y2="125" stroke="#1a1a1a" stroke-width="13.0" stroke-linecap="round"/>
<line x1="256" y1="197" x2="256" y2="166" stroke="#1a1a1a" stroke-width="13.0" stroke-linecap="round"/>
<path d="M 209.0 184.0 L 209.0 128.0 Q 209.0 76.0 256 76.0 Q 303.0 76.0 303.0 128.0 L 303.0 184.0 L 290.0 184.0 L 290.0 130.0 Q 290.0 96.0 256 96.0 Q 222.0 96.0 222.0 130.0 L 222.0 184.0 Z" fill="#5a3a1f" stroke="#1a1a1a" stroke-width="3" stroke-linejoin="round"/>
<path d="M 220.0 197 L 292.0 197 L 306.0 455 L 206.0 455 Z" fill="#2f3e72" stroke="#1a1a1a" stroke-width="4" stroke-linejoin="round"/>
<line x1="256" y1="209" x2="256" y2="449" stroke="#3d4f88" stroke-width="2" stroke-linecap="round"/>
<path d="M 230.0 223 L 216.0 445" fill="none" stroke="#222e57" stroke-width="2" stroke-linejoin="round"/>
<path d="M 282.0 223 L 296.0 445" fill="none" stroke="#222e57" stroke-width="2" stroke-linejoin="round"/>
<line x1="226" y1="199" x2="212" y2="305" stroke="#ffffff" stroke-width="20" stroke-linecap="round"/>
<line x1="226" y1="199" x2="212" y2="305" stroke="#1a1a1a" stroke-width="13.0" stroke-linecap="round"/>
<circle id="h1" data-fig="ma" class="skin" cx="256" cy="130" r="40" fill="#7a4a26" stroke="#1a1a1a" stroke-width="6"/>
<path d="M 218.0 96.0 Q 256 82.0 294.0 96.0 Q 256 92.0 218.0 96.0 Z" fill="#241c14" stroke="#1a1a1a" stroke-width="3" stroke-linejoin="round"/>
<path d="M 208.0 140 Q 206.0 68 256.0 68 Q 306.0 68 304.0 140 Q 256.0 98 208.0 140 Z" fill="#2f3e72" stroke="#1a1a1a" stroke-width="4" stroke-linejoin="round"/>
<path d="M 214.0 124 L 298.0 124 L 301.0 178 Q 256.0 192 211.0 178 Z" fill="#2f3e72" stroke="#1a1a1a" stroke-width="4" stroke-linejoin="round"/>
<path d="M 214.0 124 Q 256.0 118 298.0 124" fill="none" stroke="#2f3e72" stroke-width="4" stroke-linejoin="round"/>
<rect x="234" y="123" width="44" height="7" rx="0" fill="#7a4a26" stroke="#1a1a1a" stroke-width="0"/>
<line x1="241" y1="127" x2="250" y2="127" stroke="#1a1a1a" stroke-width="2" stroke-linecap="round"/>
<line x1="262" y1="127" x2="271" y2="127" stroke="#1a1a1a" stroke-width="2" stroke-linecap="round"/>
<path d="M 300.0 170 L 314.0 247 L 300.0 251 Z" fill="#222e57" stroke="#1a1a1a" stroke-width="3" stroke-linejoin="round"/>
<path d="M 220.0 140 Q 256.0 174 292.0 140" fill="none" stroke="#3d4f88" stroke-width="2" stroke-linejoin="round"/>
<polygon points="265.0,210 282.5,185.0 335.0,185.0 335.0,235.0 282.5,235.0" fill="#f0c419" stroke="#1a1a1a" stroke-width="4" stroke-linejoin="round"/>
<circle cx="285" cy="210" r="6" fill="#ffffff" stroke="#1a1a1a" stroke-width="2"/>
<path d="M 319 196 q -7 -7 -15 -2 q -7 5 -5 15 l 0 14" fill="none" stroke="#1a1a1a" stroke-width="4" stroke-linejoin="round"/>
<line x1="297" y1="223" x2="321" y2="223" stroke="#1a1a1a" stroke-width="4" stroke-linecap="round"/>
<line x1="298" y1="210" x2="314" y2="210" stroke="#1a1a1a" stroke-width="3.2" stroke-linecap="round"/>
<polygon points="345.0,320 362.5,295.0 415.0,295.0 415.0,345.0 362.5,345.0" fill="#7ec88a" stroke="#1a1a1a" stroke-width="4" stroke-linejoin="round"/>
<circle cx="365" cy="320" r="6" fill="#ffffff" stroke="#1a1a1a" stroke-width="2"/>
<path d="M 399 306 q -7 -7 -15 -2 q -7 5 -5 15 l 0 14" fill="none" stroke="#1a1a1a" stroke-width="4" stroke-linejoin="round"/>
<line x1="377" y1="333" x2="401" y2="333" stroke="#1a1a1a" stroke-width="4" stroke-linecap="round"/>
<line x1="378" y1="320" x2="394" y2="320" stroke="#1a1a1a" stroke-width="3.2" stroke-linecap="round"/>
<line x1="330" y1="250" x2="350" y2="282" stroke="#9aa7b5" stroke-width="3" stroke-linecap="round"/>
<circle cx="420" cy="250" r="25" fill="none" stroke="#2b2b33" stroke-width="8"/>
<circle cx="420" cy="250" r="19" fill="#dfeef5" stroke="#1a1a1a" stroke-width="0"/>
<line x1="438" y1="268" x2="460" y2="290" stroke="#6b4a2b" stroke-width="10" stroke-linecap="round"/>
<line x1="342" y1="300" x2="355" y2="316" stroke="#1a1a1a" stroke-width="16.0" stroke-linecap="round"/><line x1="355" y1="316" x2="382" y2="282" stroke="#1a1a1a" stroke-width="16.0" stroke-linecap="round"/><line x1="342" y1="300" x2="355" y2="316" stroke="#2f9e4a" stroke-width="10.5" stroke-linecap="round"/>
<line x1="355" y1="316" x2="382" y2="282" stroke="#2f9e4a" stroke-width="10.5" stroke-linecap="round"/>
</svg>
