<svg data-cover="arms:covered" xmlns="http://www.w3.org/2000/svg" viewBox="0 0 512 512" data-copyright="© 2026 Sensory App House"><!--SAH-COPYRIGHT © 2026 Sensory App House. All rights reserved.--><metadata id="sah-copyright"><rdf:RDF xmlns:rdf="http://www.w3.org/1999/02/22-rdf-syntax-ns#" xmlns:dc="http://purl.org/dc/elements/1.1/" xmlns:cc="http://creativecommons.org/ns#"><cc:Work rdf:about=""><dc:rights><cc:Agent><dc:title>© 2026 Sensory App House. All rights reserved.</dc:title></cc:Agent></dc:rights><dc:creator><cc:Agent><dc:title>Sensory App House (PiCom)</dc:title></cc:Agent></dc:creator><dc:date>2026</dc:date></cc:Work></rdf:RDF></metadata><metadata id="sah">{"v":1,"fig":[["h1","ma"]]}</metadata><g data-fit="1" transform="translate(256 256) scale(1.0989) translate(-220.00 -271.00)">
<g transform="translate(-16.7,-12.3) scale(1.083)"><!-- Bow tie (tuxedo) -->
  <!-- left wing -->
  <path d="M140 256 L50 196 C40 190 32 196 32 208 L32 304 C32 316 40 322 50 316 L140 256 Z"
        fill="#1a1a1a" stroke="#1a1a1a" stroke-width="5" stroke-linejoin="round"/>
  <!-- right wing -->
  <path d="M140 256 L230 196 C240 190 248 196 248 208 L248 304 C248 316 240 322 230 316 L140 256 Z"
        fill="#1a1a1a" stroke="#1a1a1a" stroke-width="5" stroke-linejoin="round"/>
  <!-- center knot -->
  <rect x="118" y="222" width="44" height="68" rx="10" fill="#333333" stroke="#1a1a1a" stroke-width="5"/></g>
<line x1="353" y1="303" x2="344" y2="455" stroke="#39425c" stroke-width="16.0" stroke-linecap="round"/>
<line x1="383" y1="303" x2="392" y2="455" stroke="#39425c" stroke-width="16.0" stroke-linecap="round"/>
<ellipse cx="344" cy="457" rx="13" ry="7" fill="#33373d"/>
<ellipse cx="392" cy="457" rx="13" ry="7" fill="#33373d"/>
<!-- Tuxedo jacket (black) -->
<polygon points="336,197 400,197 398,305 338,305" fill="#1f2229" stroke="#1a1a1a" stroke-width="5" stroke-linejoin="round"/>
<!-- White shirt front -->
<polygon points="356,197 380,197 378,305 358,305" fill="#ffffff" stroke="#1a1a1a" stroke-width="3" stroke-linejoin="round"/>
<!-- Jacket lapels over the shirt -->
<polygon points="356,197 368,241 348,197" fill="#33373f" stroke="#1a1a1a" stroke-width="3" stroke-linejoin="round"/>
<polygon points="380,197 368,241 388,197" fill="#33373f" stroke="#1a1a1a" stroke-width="3" stroke-linejoin="round"/>
<!-- Shirt buttons -->
<circle cx="368" cy="258" r="3" fill="#1a1a1a"/>
<circle cx="368" cy="278" r="3" fill="#1a1a1a"/>
<line x1="338" y1="199" x2="318" y2="305" stroke="#1a1a1a" stroke-width="13.0" stroke-linecap="round"/>
<line x1="398" y1="199" x2="418" y2="305" stroke="#1a1a1a" stroke-width="13.0" stroke-linecap="round"/>
<line x1="368" y1="197" x2="368" y2="166" stroke="#1a1a1a" stroke-width="13.0" stroke-linecap="round"/>
<!-- Bow tie at the collar -->
<polygon points="368,204 354,196 354,212" fill="#1a1a1a" stroke="#1a1a1a" stroke-width="3" stroke-linejoin="round"/>
<polygon points="368,204 382,196 382,212" fill="#1a1a1a" stroke="#1a1a1a" stroke-width="3" stroke-linejoin="round"/>
<rect x="364" y="200" width="8" height="8" rx="2" fill="#1a1a1a"/>
<path d="M 332.0 197 L 404.0 197 L 418.0 455 L 318.0 455 Z" fill="#2f3e72" stroke="#1a1a1a" stroke-width="4" stroke-linejoin="round"/>
<line x1="368" y1="209" x2="368" y2="449" stroke="#3d4f88" stroke-width="2" stroke-linecap="round"/>
<path d="M 342.0 223 L 328.0 445" fill="none" stroke="#222e57" stroke-width="2" stroke-linejoin="round"/>
<path d="M 394.0 223 L 408.0 445" fill="none" stroke="#222e57" stroke-width="2" stroke-linejoin="round"/>
<line x1="338" y1="199" x2="318" y2="305" stroke="#ffffff" stroke-width="20" stroke-linecap="round"/>
<line x1="338" y1="199" x2="318" y2="305" stroke="#1a1a1a" stroke-width="13.0" stroke-linecap="round"/>
<line x1="398" y1="199" x2="418" y2="305" stroke="#ffffff" stroke-width="20" stroke-linecap="round"/>
<line x1="398" y1="199" x2="418" y2="305" stroke="#1a1a1a" stroke-width="13.0" stroke-linecap="round"/>
<circle id="h1" data-fig="ma" cx="368" cy="130" r="40" fill="#7a4a26" stroke="#1a1a1a" stroke-width="6" class="skin"/>
<path d="M 328.0 130.0 Q 328.0 80.0 368 80.0 Q 408.0 80.0 408.0 130.0 Q 368 103.0 328.0 130.0 Z" fill="#241c14" stroke="#1a1a1a" stroke-width="3" stroke-linejoin="round"/>
<path d="M 320.0 140 Q 318.0 68 368.0 68 Q 418.0 68 416.0 140 Q 368.0 98 320.0 140 Z" fill="#2f3e72" stroke="#1a1a1a" stroke-width="4" stroke-linejoin="round"/>
<path d="M 326.0 124 L 410.0 124 L 413.0 178 Q 368.0 192 323.0 178 Z" fill="#2f3e72" stroke="#1a1a1a" stroke-width="4" stroke-linejoin="round"/>
<path d="M 326.0 124 Q 368.0 118 410.0 124" fill="none" stroke="#2f3e72" stroke-width="4" stroke-linejoin="round"/>
<rect x="346" y="123" width="44" height="7" rx="0" fill="#7a4a26" stroke="#1a1a1a" stroke-width="0"/>
<line x1="353" y1="127" x2="362" y2="127" stroke="#1a1a1a" stroke-width="2" stroke-linecap="round"/>
<line x1="374" y1="127" x2="383" y2="127" stroke="#1a1a1a" stroke-width="2" stroke-linecap="round"/>
<path d="M 412.0 170 L 426.0 247 L 412.0 251 Z" fill="#222e57" stroke="#1a1a1a" stroke-width="3" stroke-linejoin="round"/>
<path d="M 332.0 140 Q 368.0 174 404.0 140" fill="none" stroke="#3d4f88" stroke-width="2" stroke-linejoin="round"/>
</g></svg>
