<svg data-cover="arms:covered" xmlns="http://www.w3.org/2000/svg" viewBox="0 0 512 512" data-copyright="© 2026 Sensory App House"><!--SAH-COPYRIGHT © 2026 Sensory App House. All rights reserved.--><metadata id="sah-copyright"><rdf:RDF xmlns:rdf="http://www.w3.org/1999/02/22-rdf-syntax-ns#" xmlns:dc="http://purl.org/dc/elements/1.1/" xmlns:cc="http://creativecommons.org/ns#"><cc:Work rdf:about=""><dc:rights><cc:Agent><dc:title>© 2026 Sensory App House. All rights reserved.</dc:title></cc:Agent></dc:rights><dc:creator><cc:Agent><dc:title>Sensory App House (PiCom)</dc:title></cc:Agent></dc:creator><dc:date>2026</dc:date></cc:Work></rdf:RDF></metadata><metadata id="sah">{"v":1,"fig":[["h1","ma"],["h2","fa"]]}</metadata><g data-fit="1" transform="translate(256 256) scale(1.1553) translate(-257.00 -266.00)">
<line x1="161" y1="300" x2="152" y2="452" stroke="#39425c" stroke-width="16.0" stroke-linecap="round"/>
<line x1="191" y1="300" x2="200" y2="452" stroke="#39425c" stroke-width="16.0" stroke-linecap="round"/>
<ellipse cx="152" cy="454" rx="13" ry="7" fill="#33373d"/>
<ellipse cx="200" cy="454" rx="13" ry="7" fill="#33373d"/>
<polygon points="144,194 208,194 206,302 146,302" fill="#2f3e72" stroke="#1a1a1a" stroke-width="5" stroke-linejoin="round"/>
<line x1="146" y1="196" x2="126" y2="302" stroke="#1a1a1a" stroke-width="13.0" stroke-linecap="round"/>
<line x1="206" y1="196" x2="226" y2="302" stroke="#1a1a1a" stroke-width="13.0" stroke-linecap="round"/>
<line x1="176" y1="194" x2="176" y2="163" stroke="#1a1a1a" stroke-width="13.0" stroke-linecap="round"/>
<g transform="translate(0,-3)"><path d="M 140.0 197 L 212.0 197 L 226.0 455 L 126.0 455 Z" fill="#2f3e72" stroke="#1a1a1a" stroke-width="4" stroke-linejoin="round"/>
<line x1="176" y1="209" x2="176" y2="449" stroke="#3d4f88" stroke-width="2" stroke-linecap="round"/>
<path d="M 150.0 223 L 136.0 445" fill="none" stroke="#222e57" stroke-width="2" stroke-linejoin="round"/>
<path d="M 202.0 223 L 216.0 445" fill="none" stroke="#222e57" stroke-width="2" stroke-linejoin="round"/></g>
<line x1="146" y1="196" x2="126" y2="302" stroke="#ffffff" stroke-width="20" stroke-linecap="round"/>
<line x1="146" y1="196" x2="126" y2="302" stroke="#1a1a1a" stroke-width="13.0" stroke-linecap="round"/>
<line x1="206" y1="196" x2="226" y2="302" stroke="#ffffff" stroke-width="20" stroke-linecap="round"/>
<line x1="206" y1="196" x2="226" y2="302" stroke="#1a1a1a" stroke-width="13.0" stroke-linecap="round"/>
<circle id="h1" data-fig="ma" class="skin" cx="176" cy="127" r="40" fill="#7a4a26" stroke="#1a1a1a" stroke-width="6"/>
<path d="M 136.0 127.0 Q 136.0 77.0 176 77.0 Q 216.0 77.0 216.0 127.0 Q 176 100.0 136.0 127.0 Z" fill="#241c14" stroke="#1a1a1a" stroke-width="3" stroke-linejoin="round"/>
<g transform="translate(0,-3)"><path d="M 128.0 140 Q 126.0 68 176.0 68 Q 226.0 68 224.0 140 Q 176.0 98 128.0 140 Z" fill="#2f3e72" stroke="#1a1a1a" stroke-width="4" stroke-linejoin="round"/>
<path d="M 134.0 124 L 218.0 124 L 221.0 178 Q 176.0 192 131.0 178 Z" fill="#2f3e72" stroke="#1a1a1a" stroke-width="4" stroke-linejoin="round"/>
<path d="M 134.0 124 Q 176.0 118 218.0 124" fill="none" stroke="#2f3e72" stroke-width="4" stroke-linejoin="round"/>
<rect x="154" y="123" width="44" height="7" rx="0" fill="#7a4a26" stroke="#1a1a1a" stroke-width="0"/>
<line x1="161" y1="127" x2="170" y2="127" stroke="#1a1a1a" stroke-width="2" stroke-linecap="round"/>
<line x1="182" y1="127" x2="191" y2="127" stroke="#1a1a1a" stroke-width="2" stroke-linecap="round"/>
<path d="M 220.0 170 L 234.0 247 L 220.0 251 Z" fill="#222e57" stroke="#1a1a1a" stroke-width="3" stroke-linejoin="round"/>
<path d="M 140.0 140 Q 176.0 174 212.0 140" fill="none" stroke="#3d4f88" stroke-width="2" stroke-linejoin="round"/></g>
<circle cx="163" cy="124" r="4" fill="#1a1a1a" stroke="#1a1a1a" stroke-width="0"/>
<circle cx="189" cy="124" r="4" fill="#1a1a1a" stroke="#1a1a1a" stroke-width="0"/>
<path d="M 162.0 141.0 Q 176 157.0 190.0 141.0" fill="none" stroke="#1a1a1a" stroke-width="4" stroke-linejoin="round"/>
<path d="M 306.0 194.0 L 366.0 194.0 L 366.0 284.0 L 392.0 386.0 L 280.0 386.0 L 306.0 284.0 Z" fill="#d6529e" stroke="#1a1a1a" stroke-width="5" stroke-linejoin="round"/>
<line x1="318" y1="386" x2="312" y2="452" stroke="#1a1a1a" stroke-width="13.0" stroke-linecap="round"/>
<line x1="354" y1="386" x2="360" y2="452" stroke="#1a1a1a" stroke-width="13.0" stroke-linecap="round"/>
<ellipse cx="312" cy="454" rx="13" ry="7" fill="#33373d"/>
<ellipse cx="360" cy="454" rx="13" ry="7" fill="#33373d"/>
<line x1="306" y1="196" x2="286" y2="302" stroke="#1a1a1a" stroke-width="13.0" stroke-linecap="round"/>
<line x1="366" y1="196" x2="386" y2="302" stroke="#1a1a1a" stroke-width="13.0" stroke-linecap="round"/>
<line x1="336" y1="194" x2="336" y2="163" stroke="#1a1a1a" stroke-width="13.0" stroke-linecap="round"/>
<path d="M 289.0 181.0 L 289.0 125.0 Q 289.0 73.0 336 73.0 Q 383.0 73.0 383.0 125.0 L 383.0 181.0 L 370.0 181.0 L 370.0 127.0 Q 370.0 93.0 336 93.0 Q 302.0 93.0 302.0 127.0 L 302.0 181.0 Z" fill="#5a3a1f" stroke="#1a1a1a" stroke-width="3" stroke-linejoin="round"/>
<g transform="translate(0,-3)"><path d="M 302.0 197 L 370.0 197 L 384.0 455 L 288.0 455 Z" fill="#2f3e72" stroke="#1a1a1a" stroke-width="4" stroke-linejoin="round"/>
<path d="M 314.0 217 L 306.0 447" fill="none" stroke="#222e57" stroke-width="2" stroke-linejoin="round"/>
<path d="M 358.0 217 L 366.0 447" fill="none" stroke="#222e57" stroke-width="2" stroke-linejoin="round"/>
<line x1="336" y1="211" x2="336" y2="449" stroke="#3d4f88" stroke-width="2" stroke-linecap="round"/></g>
<line x1="306" y1="196" x2="286" y2="302" stroke="#ffffff" stroke-width="20" stroke-linecap="round"/>
<line x1="306" y1="196" x2="286" y2="302" stroke="#1a1a1a" stroke-width="13.0" stroke-linecap="round"/>
<line x1="366" y1="196" x2="386" y2="302" stroke="#ffffff" stroke-width="20" stroke-linecap="round"/>
<line x1="366" y1="196" x2="386" y2="302" stroke="#1a1a1a" stroke-width="13.0" stroke-linecap="round"/>
<circle id="h2" data-fig="fa" class="skin" cx="336" cy="127" r="40" fill="#7a4a26" stroke="#1a1a1a" stroke-width="6"/>
<path d="M 298.0 93.0 Q 336 79.0 374.0 93.0 Q 336 89.0 298.0 93.0 Z" fill="#5a3a1f" stroke="#1a1a1a" stroke-width="3" stroke-linejoin="round"/>
<g transform="translate(0,-3)"><path d="M 285.0 210 L 285.0 122 Q 285.0 72 336.0 72 Q 387.0 72 387.0 122 L 387.0 210 Q 336.0 224 285.0 210 Z" fill="#2f3e72" stroke="#1a1a1a" stroke-width="4" stroke-linejoin="round"/>
<ellipse cx="336" cy="136" rx="26" ry="34" fill="#7a4a26" stroke="#1a1a1a" stroke-width="5"/>
<path d="M 287.0 124 Q 336.0 78 385.0 124" fill="none" stroke="#3d4f88" stroke-width="3" stroke-linejoin="round"/></g>
<circle cx="323" cy="124" r="4" fill="#1a1a1a" stroke="#1a1a1a" stroke-width="0"/>
<circle cx="349" cy="124" r="4" fill="#1a1a1a" stroke="#1a1a1a" stroke-width="0"/>
<path d="M 322.0 141.0 Q 336 157.0 350.0 141.0" fill="none" stroke="#1a1a1a" stroke-width="4" stroke-linejoin="round"/>
<rect x="174" y="280" width="4" height="8" rx="1" fill="#9aa7b5" stroke="#1a1a1a" stroke-width="2"/>
<rect x="154" y="288" width="44" height="40" rx="3" fill="#ffffff" stroke="#1a1a1a" stroke-width="3"/>
<rect x="154" y="288" width="44" height="12" rx="0" fill="#2b6fb0" stroke="#1a1a1a" stroke-width="0"/>
<line x1="161" y1="308" x2="191" y2="308" stroke="#9aa7b5" stroke-width="3" stroke-linecap="round"/>
<line x1="161" y1="318" x2="184" y2="318" stroke="#9aa7b5" stroke-width="3" stroke-linecap="round"/>
<rect x="334" y="280" width="4" height="8" rx="1" fill="#9aa7b5" stroke="#1a1a1a" stroke-width="2"/>
<rect x="314" y="288" width="44" height="40" rx="3" fill="#ffffff" stroke="#1a1a1a" stroke-width="3"/>
<rect x="314" y="288" width="44" height="12" rx="0" fill="#d6529e" stroke="#1a1a1a" stroke-width="0"/>
<line x1="321" y1="308" x2="351" y2="308" stroke="#9aa7b5" stroke-width="3" stroke-linecap="round"/>
<line x1="321" y1="318" x2="344" y2="318" stroke="#9aa7b5" stroke-width="3" stroke-linecap="round"/>
<line x1="216" y1="302" x2="296" y2="302" stroke="#f1c9a5" stroke-width="9" stroke-linecap="round"/>
</g></svg>
