<svg data-cover="arms:covered" xmlns="http://www.w3.org/2000/svg" viewBox="33.71 46.51 448.00 448.00"><metadata id="sah">{"v":1,"fig":[["h1","ma"],["h2","fa"]]}</metadata>
<line x1="203" y1="305" x2="194" y2="455" stroke="#39425c" stroke-width="16" stroke-linecap="round"/>
<line x1="229" y1="305" x2="238" y2="455" stroke="#39425c" stroke-width="16" stroke-linecap="round"/>
<ellipse cx="194" cy="457" rx="13" ry="7" fill="#33373d" stroke="#1a1a1a" stroke-width="4"/>
<ellipse cx="238" cy="457" rx="13" ry="7" fill="#33373d" stroke="#1a1a1a" stroke-width="4"/>
<polygon points="184,197 248,197 246,305 186,305" fill="#2f3e72" stroke="#1a1a1a" stroke-width="5" stroke-linejoin="round"/>
<line x1="216" y1="197" x2="216" y2="166" stroke="#1a1a1a" stroke-width="14" stroke-linecap="round"/>
<path d="M 180.0 197 L 252.0 197 L 266.0 455 L 166.0 455 Z" fill="#2f3e72" stroke="#1a1a1a" stroke-width="4" stroke-linejoin="round"/>
<line x1="216" y1="209" x2="216" y2="449" stroke="#3d4f88" stroke-width="2" stroke-linecap="round"/>
<path d="M 190.0 223 L 176.0 445" fill="none" stroke="#222e57" stroke-width="2" stroke-linejoin="round"/>
<path d="M 242.0 223 L 256.0 445" fill="none" stroke="#222e57" stroke-width="2" stroke-linejoin="round"/>
<line x1="186" y1="201" x2="170" y2="305" stroke="#ffffff" stroke-width="21" stroke-linecap="round"/>
<line x1="186" y1="201" x2="170" y2="305" stroke="#1a1a1a" stroke-width="14" stroke-linecap="round"/>
<line x1="246" y1="201" x2="300" y2="205" stroke="#ffffff" stroke-width="21" stroke-linecap="round"/>
<line x1="246" y1="201" x2="300" y2="205" stroke="#1a1a1a" stroke-width="14" stroke-linecap="round"/>
<line x1="270" y1="201" x2="270" y2="305" stroke="#ffffff" stroke-width="21" stroke-linecap="round"/>
<line x1="270" y1="201" x2="270" y2="305" stroke="#1a1a1a" stroke-width="14" stroke-linecap="round"/>
<circle id="h1" data-fig="ma" class="skin" cx="216" cy="130" r="40" fill="#7a4a26" stroke="#1a1a1a" stroke-width="6"/>
<path d="M 176 130 Q 176 80 216 80 Q 256 80 256 130 Q 216 103 176 130 Z" fill="#241c14" stroke="#1a1a1a" stroke-width="3" stroke-linejoin="round"/>
<path d="M 168.0 140 Q 166.0 68 216.0 68 Q 266.0 68 264.0 140 Q 216.0 98 168.0 140 Z" fill="#2f3e72" stroke="#1a1a1a" stroke-width="4" stroke-linejoin="round"/>
<path d="M 174.0 124 L 258.0 124 L 261.0 178 Q 216.0 192 171.0 178 Z" fill="#2f3e72" stroke="#1a1a1a" stroke-width="4" stroke-linejoin="round"/>
<path d="M 174.0 124 Q 216.0 118 258.0 124" fill="none" stroke="#2f3e72" stroke-width="4" stroke-linejoin="round"/>
<rect x="194" y="123" width="44" height="7" rx="0" fill="#7a4a26" stroke="#1a1a1a" stroke-width="0"/>
<line x1="201" y1="127" x2="210" y2="127" stroke="#1a1a1a" stroke-width="2" stroke-linecap="round"/>
<line x1="222" y1="127" x2="231" y2="127" stroke="#1a1a1a" stroke-width="2" stroke-linecap="round"/>
<path d="M 260.0 170 L 274.0 247 L 260.0 251 Z" fill="#222e57" stroke="#1a1a1a" stroke-width="3" stroke-linejoin="round"/>
<path d="M 180.0 140 Q 216.0 174 252.0 140" fill="none" stroke="#3d4f88" stroke-width="2" stroke-linejoin="round"/>
<line x1="287" y1="305" x2="278" y2="455" stroke="#39425c" stroke-width="16" stroke-linecap="round"/>
<line x1="313" y1="305" x2="322" y2="455" stroke="#39425c" stroke-width="16" stroke-linecap="round"/>
<ellipse cx="278" cy="457" rx="13" ry="7" fill="#33373d" stroke="#1a1a1a" stroke-width="4"/>
<ellipse cx="322" cy="457" rx="13" ry="7" fill="#33373d" stroke="#1a1a1a" stroke-width="4"/>
<polygon points="268,197 332,197 330,305 270,305" fill="#d6529e" stroke="#1a1a1a" stroke-width="5" stroke-linejoin="round"/>
<line x1="300" y1="197" x2="300" y2="166" stroke="#1a1a1a" stroke-width="14" stroke-linecap="round"/>
<path d="M 253 184 L 253 128 Q 253 76 300 76 Q 347 76 347 128 L 347 184 L 334 184 L 334 130 Q 334 96 300 96 Q 266 96 266 130 L 266 184 Z" fill="#5a3a1f" stroke="#1a1a1a" stroke-width="3" stroke-linejoin="round"/>
<path d="M 266.0 197 L 334.0 197 L 348.0 455 L 252.0 455 Z" fill="#2f3e72" stroke="#1a1a1a" stroke-width="4" stroke-linejoin="round"/>
<path d="M 278.0 217 L 270.0 447" fill="none" stroke="#222e57" stroke-width="2" stroke-linejoin="round"/>
<path d="M 322.0 217 L 330.0 447" fill="none" stroke="#222e57" stroke-width="2" stroke-linejoin="round"/>
<line x1="300" y1="211" x2="300" y2="449" stroke="#3d4f88" stroke-width="2" stroke-linecap="round"/>
<line x1="246" y1="201" x2="300" y2="205" stroke="#ffffff" stroke-width="21" stroke-linecap="round"/>
<line x1="246" y1="201" x2="300" y2="205" stroke="#1a1a1a" stroke-width="14" stroke-linecap="round"/>
<line x1="270" y1="201" x2="270" y2="305" stroke="#ffffff" stroke-width="21" stroke-linecap="round"/>
<line x1="270" y1="201" x2="270" y2="305" stroke="#1a1a1a" stroke-width="14" stroke-linecap="round"/>
<line x1="330" y1="201" x2="346" y2="305" stroke="#ffffff" stroke-width="21" stroke-linecap="round"/>
<line x1="330" y1="201" x2="346" y2="305" stroke="#1a1a1a" stroke-width="14" stroke-linecap="round"/>
<circle id="h2" data-fig="fa" class="skin" cx="300" cy="130" r="40" fill="#7a4a26" stroke="#1a1a1a" stroke-width="6"/>
<path d="M 262 96 Q 300 82 338 96 Q 300 92 262 96 Z" fill="#5a3a1f" stroke="#1a1a1a" stroke-width="3" stroke-linejoin="round"/>
<path d="M 249.0 210 L 249.0 122 Q 249.0 72 300.0 72 Q 351.0 72 351.0 122 L 351.0 210 Q 300.0 224 249.0 210 Z" fill="#2f3e72" stroke="#1a1a1a" stroke-width="4" stroke-linejoin="round"/>
<ellipse cx="300" cy="136" rx="26" ry="34" fill="#7a4a26" stroke="#1a1a1a" stroke-width="5"/>
<path d="M 251.0 124 Q 300.0 78 349.0 124" fill="none" stroke="#3d4f88" stroke-width="3" stroke-linejoin="round"/>
<line x1="284" y1="124" x2="296" y2="118" stroke="#1a1a1a" stroke-width="3" stroke-linecap="round"/>
<line x1="304" y1="118" x2="316" y2="124" stroke="#1a1a1a" stroke-width="3" stroke-linecap="round"/>
<circle cx="291" cy="132" r="4" fill="#fff" stroke="#1a1a1a" stroke-width="2"/>
<circle cx="309" cy="132" r="4" fill="#fff" stroke="#1a1a1a" stroke-width="2"/>
<circle cx="291" cy="134" r="2" fill="#1a1a1a" stroke="#1a1a1a" stroke-width="0"/>
<circle cx="309" cy="134" r="2" fill="#1a1a1a" stroke="#1a1a1a" stroke-width="0"/>
<path d="M 289 152 Q 300 143 311 152" fill="none" stroke="#1a1a1a" stroke-width="4" stroke-linejoin="round"/>
<path d="M 309 138 q 4 9 0 14 q -4 -5 0 -14 Z" fill="#7ec8f0" stroke="#1a1a1a" stroke-width="1.5" stroke-linejoin="round"/>
<line x1="186" y1="201" x2="170" y2="305" stroke="#1a1a1a" stroke-width="14" stroke-linecap="round"/>
<line x1="246" y1="201" x2="300" y2="205" stroke="#1a1a1a" stroke-width="14" stroke-linecap="round"/>
<circle cx="312" cy="205" r="9" fill="#7a4a26" stroke="#1a1a1a" stroke-width="3"/>
<line x1="270" y1="201" x2="270" y2="305" stroke="#1a1a1a" stroke-width="14" stroke-linecap="round"/>
<line x1="330" y1="201" x2="346" y2="305" stroke="#1a1a1a" stroke-width="14" stroke-linecap="round"/>
<path d="M 256 163 C 232 142 232 166 256 179 C 280 166 280 142 256 163 Z" fill="#e23b3b" stroke="#1a1a1a" stroke-width="2"/>
</svg>
