<svg data-cover="arms:covered" xmlns="http://www.w3.org/2000/svg" viewBox="0 0 512 512" data-copyright="© 2026 Sensory App House"><!--SAH-COPYRIGHT © 2026 Sensory App House. All rights reserved.--><metadata id="sah-copyright"><rdf:RDF xmlns:rdf="http://www.w3.org/1999/02/22-rdf-syntax-ns#" xmlns:dc="http://purl.org/dc/elements/1.1/" xmlns:cc="http://creativecommons.org/ns#"><cc:Work rdf:about=""><dc:rights><cc:Agent><dc:title>© 2026 Sensory App House. All rights reserved.</dc:title></cc:Agent></dc:rights><dc:creator><cc:Agent><dc:title>Sensory App House (PiCom)</dc:title></cc:Agent></dc:creator><dc:date>2026</dc:date></cc:Work></rdf:RDF></metadata><metadata id="sah">{"v":1,"fig":[["h1","fa"]]}</metadata><line x1="241" y1="300" x2="232" y2="452" stroke="#39425c" stroke-width="16" stroke-linecap="round"/><line x1="271" y1="300" x2="280" y2="452" stroke="#39425c" stroke-width="16" stroke-linecap="round"/><ellipse cx="232" cy="454" rx="13" ry="7" fill="#33373d"/><ellipse cx="280" cy="454" rx="13" ry="7" fill="#33373d"/><polygon points="224,190 288,190 286,300 226,300" fill="#2f3e72" stroke="#1a1a1a" stroke-width="5" stroke-linejoin="round"/><line x1="226" y1="192" x2="244" y2="256" stroke="#1a1a1a" stroke-width="13" stroke-linecap="round"/><line x1="286" y1="192" x2="268" y2="256" stroke="#1a1a1a" stroke-width="13" stroke-linecap="round"/><line x1="256" y1="190" x2="256" y2="160" stroke="#1a1a1a" stroke-width="13" stroke-linecap="round"/><path d="M 209.0 178.0 L 209.0 122.0 Q 209.0 70.0 256.0 70.0 Q 303.0 70.0 303.0 122.0 L 303.0 178.0 L 290.0 178.0 L 290.0 124.0 Q 290.0 90.0 256.0 90.0 Q 222.0 90.0 222.0 124.0 L 222.0 178.0 Z" fill="#5a3a1f" stroke="#1a1a1a" stroke-width="3"/><g transform="translate(0,-6)"><path d="M 222.0 197 L 290.0 197 L 304.0 455 L 208.0 455 Z" fill="#2f3e72" stroke="#1a1a1a" stroke-width="4" stroke-linejoin="round"/>
<path d="M 234.0 217 L 226.0 447" fill="none" stroke="#222e57" stroke-width="2" stroke-linejoin="round"/>
<path d="M 278.0 217 L 286.0 447" fill="none" stroke="#222e57" stroke-width="2" stroke-linejoin="round"/>
<line x1="256" y1="211" x2="256" y2="449" stroke="#3d4f88" stroke-width="2" stroke-linecap="round"/></g>
<line x1="226" y1="192" x2="244" y2="256" stroke="#ffffff" stroke-width="20" stroke-linecap="round"/>
<line x1="226" y1="192" x2="244" y2="256" stroke="#1a1a1a" stroke-width="13" stroke-linecap="round"/>
<line x1="286" y1="192" x2="268" y2="256" stroke="#ffffff" stroke-width="20" stroke-linecap="round"/>
<line x1="286" y1="192" x2="268" y2="256" stroke="#1a1a1a" stroke-width="13" stroke-linecap="round"/>
<circle id="h1" data-fig="fa" class="skin" cx="256" cy="124" r="40" fill="#7a4a26" stroke="#1a1a1a" stroke-width="6"/><path d="M 218.0 90.0 Q 256.0 76.0 294.0 90.0 Q 256.0 86.0 218.0 90.0 Z" fill="#5a3a1f" stroke="#1a1a1a" stroke-width="3"/>
<g transform="translate(0,-6)"><path d="M 205.0 210 L 205.0 122 Q 205.0 72 256.0 72 Q 307.0 72 307.0 122 L 307.0 210 Q 256.0 224 205.0 210 Z" fill="#2f3e72" stroke="#1a1a1a" stroke-width="4" stroke-linejoin="round"/>
<ellipse cx="256" cy="136" rx="26" ry="34" fill="#7a4a26" stroke="#1a1a1a" stroke-width="5"/>
<path d="M 207.0 124 Q 256.0 78 305.0 124" fill="none" stroke="#3d4f88" stroke-width="3" stroke-linejoin="round"/></g><rect x="246" y="372" width="20" height="62" fill="#8a5a3a" stroke="#1a1a1a" stroke-width="3"/><ellipse cx="256" cy="440" rx="46" ry="10" fill="#8a5a3a" stroke="#1a1a1a" stroke-width="3"/><ellipse cx="256" cy="372" rx="132" ry="32" fill="#1f7a44" stroke="#1a1a1a" stroke-width="4"/><ellipse cx="256" cy="367" rx="118" ry="25" fill="#27945a"/><g transform="rotate(-13 198 372)"><rect x="183" y="352" width="30" height="40" rx="3" fill="#fff" stroke="#1a1a1a" stroke-width="2.5"/><circle cx="198" cy="372" r="5" fill="#e0473c"/></g><g transform="rotate(6 252 380)"><rect x="237" y="360" width="30" height="40" rx="3" fill="#fff" stroke="#1a1a1a" stroke-width="2.5"/><circle cx="252" cy="380" r="5" fill="#e0473c"/></g><g transform="rotate(17 306 370)"><rect x="291" y="350" width="30" height="40" rx="3" fill="#fff" stroke="#1a1a1a" stroke-width="2.5"/><circle cx="306" cy="370" r="5" fill="#e0473c"/></g><g transform="rotate(-28 256 286)"><rect x="244" y="236" width="24" height="44" rx="3" fill="#fff" stroke="#1a1a1a" stroke-width="2.5"/><path d="M 256 248 l 6 8 -6 8 -6 -8 Z" fill="#e0473c"/></g><g transform="rotate(-10 256 286)"><rect x="244" y="236" width="24" height="44" rx="3" fill="#fff" stroke="#1a1a1a" stroke-width="2.5"/><path d="M 256 248 l 6 8 -6 8 -6 -8 Z" fill="#e0473c"/></g><g transform="rotate(8 256 286)"><rect x="244" y="236" width="24" height="44" rx="3" fill="#fff" stroke="#1a1a1a" stroke-width="2.5"/><path d="M 256 248 l 6 8 -6 8 -6 -8 Z" fill="#e0473c"/></g><g transform="rotate(26 256 286)"><rect x="244" y="236" width="24" height="44" rx="3" fill="#fff" stroke="#1a1a1a" stroke-width="2.5"/><path d="M 256 248 l 6 8 -6 8 -6 -8 Z" fill="#e0473c"/></g></svg>
